<?xml version="1.0" encoding="UTF-8"?>
<svg id="Layer_1" data-name="Layer 1" xmlns="http://www.w3.org/2000/svg" version="1.1" viewBox="0 0 170.8 49.4">
  <defs>
    <style>
      .cls-1 {
        fill: #175907;
        stroke-width: 0px;
      }
    </style>
  </defs>
  <path class="cls-1" d="M35.8,11.9s0,0,0,0c-.1.8-.5,1.5-.9,2.3-.1.1-.2.3-.3.4-.1.2-.2.3-.2.5s0,.1,0,.1c-.1.2-.2.5-.4.7s-.3.3-.5.3c-.2,0-.2.1-.2.3,0,.1,0,.2,0,.3-.2.1-.3.4-.4.7,0,.1-.1.1-.4.1s-.3,0-.4.3c0,0-.1.2-.1.3,0,.1-.1.2-.2.4-.1,0-.1.2-.1.3,0,.2-.1.4-.3.5-.2.1-.3.3-.5.4-.2.4-.6.7-.9,1.1-.2.3-.4.5-.7.7s-.5.4-.7.5c0,.1-.1.2-.2.3s-.2.3-.3.4c0,0-.2.1-.2.2-.3.4-.6.7-.9,1-.2.2-.4.4-.5.6-.4.4-.8.7-1.2,1.1-.2.2-.4.4-.5.6v.2c-.5.3-.9.6-1.3.9-.2.2-.5.4-.6.6-.2.2-.4.3-.6.5,0,0,0,0-.1,0-.4.2-.6.5-.9.7-.1,0-.2.1-.2.2-.2.3-.6.5-.8.8,0,0-.1,0-.1.1-.1,0-.2,0-.2.1-.3.3-.5.6-.8.8-.2.2-.4.4-.7.6-.1,0-.2.2-.4.3-.2.2-.4.4-.7.6-.1,0-.2.1-.2.3,0,0,0,.1,0,.1-.4.1-.4.4-.7.7-.3.2-.7.5-1,.8,0,0-.1,0-.2.1-.4,0-.7.3-1.1.5-.4.3-.8.5-1.2.7-.1,0-.3,0-.5,0-.2,0-.4-.1-.5-.2-.5-.1-.7-.3-.8-.7,0-.2,0-.3-.2-.4,0,0-.1,0-.1-.2,0-.3,0-.6.1-.9.2-.4.4-.9.6-1.3.2-.5.5-1,.8-1.4s.5-.9.7-1.3c.4-.7.7-1.4,1.1-2.1.2-.5.4-1,.6-1.5.4-.8.6-1.6.9-2.3.4-.8.7-1.7.9-2.5.4-1.1.8-2.2,1.2-3.3.2-.5.3-1,.5-1.5.2-.5.4-1,.6-1.4.3-.8.6-1.6.7-2.5,0-.2,0-.4,0-.7s-.1-.4-.5-.5c-.2-.1-.5-.2-.8-.3-.3,0-.5,0-.7,0-.5.1-1.1.3-1.7.4,0,0-.1,0-.2,0-.6,0-1.2.2-1.9.4-.3,0-.5.1-.7.2-.5.3-1.1.6-1.6.8-.1,0-.2,0-.3.1-.6.4-1.2.6-1.8,1,0,0,0,0-.1,0-.5.4-1.2.7-1.7,1.2,0,0-.1.1-.2.1-.3,0-.5.2-.6.5,0,0-.1,0-.2,0l-.6.4-1,1c-.3.3-.5.6-.8.9-.4.4-.7.8-1.1,1.2,0,0,0,0-.1.1-.1.3-.2.7-.4.9,0,.1-.1.3-.1.4,0,.1-.1.2-.2.4-.1.4.1.7.5.9.3.1.6.3.9.4.4.1.7.3,1.1.5.2,0,.2.2.1.4-.1.2-.4.3-.7.3-1.1-.1-2-.6-2.8-1.3-.2-.2-.4-.4-.6-.7s-.3-.5-.5-.7c-.1-.3-.1-.6-.1-.9,0-.3.1-.5.3-.8.2-.6.7-1.2,1.2-1.8.5-.4.9-.9,1.4-1.3.4-.4.9-.8,1.4-1.1.5-.4,1.1-.7,1.6-1.1.5-.3.9-.6,1.4-.9.2-.2.5-.3.8-.4.3-.2.8-.3,1.1-.6.2-.2.5-.3.8-.4.5-.2,1-.5,1.6-.7.4-.2.8-.3,1.3-.4,1-.2,1.9-.4,2.8-.7.6-.1,1.2,0,1.8,0,.2,0,.4,0,.7,0,.3,0,.6.2.9.4.2.2.5.3.7.4.2,0,.5.3.7.5,0,.2.1.4.3.5.3.4.5.7.4,1.2,0,.4,0,.9,0,1.4,0,.1-.1.3-.2.5,0,0,0,0,0,.1-.1.1.1.3,0,.4s-.2.3-.1.4c0,0,0,.1-.1.2,0,.2-.1.3-.2.4,0,0,0,.1,0,.1-.2.4-.4.7-.5,1.1,0,.1-.1.3-.2.4-.3.4-.4.8-.5,1.2h0c-.2.4-.2.7-.3,1,0,0,0,0,0,.2-.1.3-.2.6-.4.9,0,0-.1.1-.1.2,0,.2,0,.3,0,.4-.1.2-.2.5-.3.8,0,.2.3.2.2.4,0,.1-.1.2,0,.4,0,.2,0,.5-.2.7-.2.2-.3.5-.4.8,0,.2-.1.4-.2.7,0,0,0,0,0,.1.1,0,.2,0,.2-.1,0,0,0-.2.1-.3s.1-.3.3-.4c.1.2.2.3.1.4,0,.3-.6.7-.8,1,0,0,0,.2-.1.2,0,0-.2,0-.2,0,0,0-.1,0-.1-.2,0,0,0-.1,0-.3-.3,0-.5.2-.6.4,0,.3-.1.5-.2.8.2,0,.2,0,.3-.2.1-.1.2-.2.4-.4,0,0,.2-.1.2,0,0,0,.1.1.1.2h-.2c0,.2-.1.3-.1.4.1.4,0,.7-.5.9h0c0,.1.1.2.1.3,0,.1,0,.2,0,.3,0,.1-.2.3-.4.3,0,.3,0,.5,0,.7,0,0-.1.1-.2.2-.2,0-.2.1-.2.3,0,.1,0,.3-.1.4,0,0,0,.2-.1.3,0,0-.1,0-.2.1,0,.2-.1.4-.2.6,0,.1-.1.2-.1.3,0,.3-.2.5-.4.8,0,0-.2.1-.3.2,0,0-.1.1-.1.2,0,.1,0,.3-.1.4h-.1c0,.3,0,.6,0,.8.2,0,.4-.1.5-.2.7-.4,1.3-1,2-1.4.2-.1.5-.4.8-.6l1.2-1c0,0,.1-.1.1-.1.1,0,.2-.1.3-.1.4-.4.8-.8,1.3-1.2,0,0,.1-.1.2-.1.1,0,.3-.2.4-.3.1-.1.3-.2.4-.4.2-.1.4-.3.5-.4,0,0,0,0,.1-.1.4-.3.7-.6,1.1-1,.1,0,.2-.2.4-.3s0,0,0,0c.5-.3.8-.7,1.2-1.2,0,0,.1-.2.2-.2.3-.3.7-.6,1-.9.2-.2.4-.5.7-.8.3-.3.6-.7,1-.9,0,0,.1,0,.1-.1.1-.1.2-.3.4-.4.5-.3.8-.8,1.1-1.2.2-.2.3-.4.5-.5.3-.3.7-.6.9-1h.1c.5-.3.7-.7,1-1,.5-.6.9-1.2,1.4-1.8.1-.2.3-.4.4-.7.1-.3.2-.5.4-.7-.2,0-.2,0-.3,0s-.1.2-.2.3c-.2.2-.3.4-.5.6,0,.2-.2.3-.3.4-.4.3-.5.6-.7.9,0,.2-.3.3-.5.4-.1,0-.2.2-.2.3-.1.3-.3.6-.7.7,0,0,0,0,0,0,0,0,0,.2,0,.2t0,0c-.4,0-.5.3-.8.6-.3.4-.6.8-1,1.1-.1,0-.2.3-.3.4s-.2.2-.4.3c.1-.2.2-.3.3-.4.3-.4.6-.9.8-1.3.2-.2.4-.4.5-.7l.9-1.2c0,0,0-.2.1-.3s.1-.3.2-.4c.4-.7.9-1.4,1.3-2.1t0,0c.6-.6.9-1.3,1.3-2,.4-.7.6-1.4.9-2.1.1-.1.1-.4.2-.6,0-.3,0-.4-.4-.5-.2-.1-.5-.2-.7-.3-.2,0-.2-.2,0-.3.2-.3.8-.6,1.3-.5.3,0,.6,0,.7.3l.3.3c.3,0,.4.3.5.5,0,.2.1.3.2.5v.3c0,.4,0,.7-.1,1.1ZM8.1,13.1c-.4.1-.6.3-.9.5,0,0,0,.1,0,.2,0,0,.2,0,.2,0,.1-.2.3-.2.5-.2,0,0,.2,0,.2,0,.2-.1.2-.2,0-.4ZM13.2,11c-.1,0-.2-.1-.4-.1-.2,0-1.2.2-1.4.3-.3.2-.7.4-1,.6-.2.1-.5.2-.6.3-.5.2-.8.4-1.3.6,0,0-.1,0-.1.1,0,0,0,.1,0,.2s.2,0,.2,0c.4-.3,1-.2,1.3-.5h0c.4,0,.5-.2.7-.4.4-.4,1-.6,1.6-.8.2,0,.6-.2.8-.4ZM15,29.7h-.1c-.1,0-.2,0-.2,0,0,0,.1.1.1.2,0,0,.1,0,.2-.1,0,0,0,0,0-.1ZM15.7,27.9h-.1c0,0-.1.1-.2.2,0,0,0,.1,0,.2,0,0,.1,0,.1,0,.1,0,.2-.1.2-.2,0,0,0-.1,0-.2ZM18.4,23.3c0,0,.1.1.1.2,0,0-.2.2-.3.3,0,0-.1,0-.2,0s-.1-.1-.1-.2c.1,0,.2-.1.2-.2,0-.1.1-.2.3-.1ZM18.3,22.3s0,0,0,0h0c0,0,.1,0,.1,0,0,0,0,0-.1,0ZM18.9,20.6s.1,0,.2-.2c0,.1.1.2.1.2,0,0,0,.1-.1.1,0,0-.1,0-.1,0,0,0,0-.1,0-.2ZM33.6,14.9c0,0,0-.2-.1-.2-.1,0-.1,0-.1.2s0,.1.1.1.1,0,.1-.1Z"/>
  <path class="cls-1" d="M28.8,34.3c-.2,0-.4-.1-.4-.3,0-.1.2,0,.2-.1-.1,0-.1-.2-.2-.3,0,0,0-.1-.2-.1-.2,0-.3-.3-.3-.4v-.3c.3-.2.4-.5.5-.8,0-.2.2-.4.3-.6.1-.3.4-.6.4-1,0-.2.2-.3.4-.5.2-.4.5-.8.7-1.2l.9-1.6c.1-.1.2-.3.4-.4,0-.1.1-.2.1-.4,0,0,0,0,0-.1l1-1.8c.4-.3.5-.7.9-1,.3-.2.2-.4.4-.7.3-.3.1,0,.2-.5.2-.3.4-.5.6-.8s.4-.5.4-.7h0c.3-.3.5-.6.6-.9.1-.4.7-.5,1.2-.4.2,0,.4,0,.5,0,.3.2.7.1,1,.3.2.1.6.5.5.7,0,.4-.2.6-.5.9l-.9.9c-.3.3,0,0-.4.3-.2.2-.2.4-.5.6-.1,0-.2.2-.3.3-.1,0-.2.3-.3.4-.1.2-.2.4-.4.6-.1,0-.1.3-.3.4-.2.2-.3.4-.5.6s-.1.1-.3,0c.1.1.2.2,0,.3-.1,0-.1.1-.2.2,0,0,0,.2-.2.1-.1,0-.3,0-.4,0h0c-.1,0-.1.1-.2.2,0,0-.1-.1-.2-.2,0,0,0,0-.1,0s0,.1,0,.1,0,0,.1,0c.1,0,.1,0,.1.2,0,0,0,0,0,.1,0,0,.1,0,.1,0,0,0,0-.1,0,0,.1,0,.1-.2.1-.3.1,0,.2,0,.1.2,0,0,0,.1,0,.2h0s0,0,0,0c-.2,0-.3,0,0,.3-.2,0-.2,0-.4.2,0-.1-.4,0,0-.4-.2,0-.3.1-.4.2,0,0,0-.1,0-.2-.2,0-.3,0-.4.1,0,0,0-.3-.2-.2-.2.2-.3.4-.4.6.1,0,.2,0,.3-.2s.2-.2.4,0c0,0,.1,0,.1,0,0,0,0,0,.1,0h0c0,0,0,0-.1,0,0-.1.2,0,.3-.1,0,.2.2.1.3.2-.2,0,0,.2-.1.3,0,0-.1.2-.2.3,0,0-.1.1,0,.2.1,0,.1,0,.2,0t.1,0c0,.2-.1.4-.2.6-.2.3-.5.5-.6.7,0,0,0,.1-.2.1-.3,0-.4,0-.4.3s0,.3-.1.4c0,0-.1,0-.1,0,0,.2,0,.3-.2.4.1.3,0,.5-.2.7-.1.2-.3.4-.4.6,0,.1-.1.3-.2.4,0,.1-.1.2-.3.1,0,0,0,0-.1,0,0,0,0,0,.1.1.1.3,0,.6,0,.8,0,0,0,0,0,0,.4-.2.9-.3,1.3-.5.6-.2,1-.5,1.5-.7.3-.2.7-.5,1.1-.6.5-.3,1.1-.8,1.6-1.1.5-.3.8-.6,1.3-.9.3-.3.6-.5.9-.8,0,0,.1,0,.2,0,0,.1-.2.2-.2.3h-.1c0,.1-.2.2-.1.3,0,0,.2,0,.3,0,0,0,0,0,.1,0,0,0,0,0,0,0-.4.2-.5.4-.7.7-.3.3-.6.6-1,.9-.3.1-.5.4-.7.6-.3.2-.8.6-1.2.8-.2.1-.3.3-.6.4-.4.1-.8.4-1.1.6-.6.3-1.2.6-1.7.9-.4.1-.8.4-1.2.4-.2,0-.6.1-.8,0-.1,0-.2,0-.2,0ZM28.9,32.4s0,0,0,0c0,0,0-.2,0-.2-.1,0,0,0-.1,0h-.1c0,.1-.1.2,0,.3s.1,0,.2-.1ZM29.2,32.7s0,0,0-.1c0,0,0,0-.1,0,0,.1-.1.2-.1.3,0,0,0,0,0,0,.1,0,.1-.1.2-.2ZM29.1,31.9c.1-.1.2-.3.3-.5s0-.2.2,0c.1.1.2.1.3,0,0,0,0-.2,0-.3h-.1c-.1.3-.1.3-.4.1h0c0,0,.1,0,0-.1,0,0-.1,0-.1,0-.2.3-.4.5-.5.9,0,0,0,0,0,0s0,0,0,0ZM29.3,32.1c-.1,0-.2.1-.2.3,0,0,0,0,.1,0,.1,0,0-.2,0-.3ZM29.5,32.7c.1,0,.1-.2.2-.3-.1,0-.2.1-.2.2,0,0,0,0,0,.1,0,0,.1,0,.1,0ZM29.7,31.7h0c0-.1,0-.1-.1,0-.1,0-.2.2,0,.4l.2-.3ZM29.7,33.1c0,0-.1,0-.2,0,.1,0,.2,0,.2,0ZM29.6,33c.1,0,.2,0,.1-.1h-.1c0,.1,0,.3,0,.3,0,0,0,0,0-.1ZM29.8,30.7c.1-.2.2-.4.4-.7t0,0s0,0-.1,0c0,0-.1,0-.1.1,0,.2-.1.3-.2.4s-.1.1,0,.2c0,0,.1,0,.1,0ZM30.1,30.8s-.1,0-.2.2h0c.1,0,.2,0,.2-.2ZM30.3,31.9c0-.2.1-.4.1-.4.2-.1,0-.2,0-.3,0,0-.1,0,0-.1,0,0,0,0,.1,0,.1,0,.2,0,.2,0,.1,0,.1-.1,0-.2,0,0-.1,0,0-.2,0,0,.1,0,.2,0,.1,0,.2,0,.1-.1h0c-.1,0-.4,0-.3-.1,0-.1,0-.3,0-.4,0,0-.1,0-.2,0s0-.1,0-.2c0,0,0,0,0-.1,0,0-.1,0-.1,0,0,0,0,0-.1.1,0,.1,0,.2.1.3,0,0,.1,0,0,.1,0,.1,0,.3-.2.4-.2.2-.2.4-.4.6,0,0,0,.1,0,.2.1,0,0-.2.2-.2,0,.3-.1.5-.2.7.2,0,.3-.2.3-.2ZM30.4,29s0,0,0-.1c0,0-.1,0-.2,0-.1,0,0,.2,0,.3l.2-.2ZM30.5,29.4s0,0,0,0c-.1,0-.1.1,0,.2,0,0,.1-.1.1-.2ZM30.6,29.1c-.1,0-.2,0-.2.2,0,0,0,0,.1,0,.1,0,.1-.1.1-.3ZM30.8,29.6s-.1,0-.1,0c0,0,0,0,0,0,0,0,.1,0,.1,0ZM30.7,28.9c0,0,.2,0,.2,0,.2.2.3,0,.5,0-.2,0-.1-.2,0-.2,0,0,0-.1,0-.2,0,0,.1,0,.1-.1,0-.3.1-.3.4-.3-.1,0-.1.2-.1.3,0,.1,0,.2-.2.2,0,0,0,0,0,0h0c0,0,0,.1,0,.1,0,0,0,0,.1,0,0,0,0,0,0,0,0,0,0,0,0,0,.2,0,.3-.1.2-.2,0-.1.2-.2.3-.4.2,0,.2-.2.1-.3-.2,0-.2.2-.4.2,0,0,.2,0,.1-.1,0,0,0,0,0-.1-.1,0-.2,0-.2.1h0c-.1.2-.2.5-.5.7-.1.1-.1.2-.2.3,0,.1-.1.3-.3.2-.1,0-.1,0-.2,0,0,0,0,0,0,0h0ZM31,28.1c-.2,0-.2.1-.3.3.2,0,.2-.2.3-.3ZM31.1,29.9c0-.1.2-.1.3-.1.2,0,.2-.2.2-.3,0-.1-.1,0-.1-.1h0c.2,0,.3-.2.4-.3,0,0,0,0,0-.1,0,0-.1,0-.1,0-.1,0-.3.2-.4.4,0,0-.1.3.2.3-.4,0-.5.2-.7.4.1,0,.3,0,.3,0ZM31,29.1h0c-.1,0,0,.1,0,.2.1,0,.2-.1.1-.2ZM31.2,28.2c.1,0,.1-.1.1-.2-.1,0-.1.1-.1.2,0,0-.2,0-.1.2.1,0,.2,0,.1-.2ZM31.4,26.1s0,0,.1,0l-.2.3c0,0,0-.1,0-.2ZM31.6,27.2c.1-.2.2-.4.4-.5s0,0,0-.1c0,0-.1,0-.1,0,0,.2-.1.4-.3.6,0,0,0,0,0,0,0,0,0,0,0,0ZM31.7,27.3c0,0,.2,0,.2,0,0,0,0-.1,0-.2l-.2.3c-.1,0-.1.2-.1.3.1,0,.3-.1.1-.3ZM31.8,25.9c0-.2.2-.3.4-.4h0c0-.1,0-.1,0-.1t0,0c-.2.2-.3.4-.5.6,0,0,0,0,0,0s0,0,0,0ZM32.4,27.3c0,0,0-.1-.1,0s-.2,0-.2.2,0,.1.1.1c.1,0,.1-.1.2-.2ZM32.4,24.9s-.1,0-.1,0c-.2,0,0,.1,0,.2,0,0,.1-.1.1-.2ZM32.4,25.8s.1,0,.1,0c-.1,0-.1,0-.1,0,0,0-.1.1-.1.2.1,0,.1-.2.1-.2ZM32.6,24.7c-.1,0-.1,0-.2.1.1,0,.1,0,.2-.1ZM32.7,25.5s0,0,0,0c0,0,0,0,0,0,0,0,0,0,0,0s0,0,0,0ZM32.7,26c0-.1,0-.2.1-.3.1-.1.2-.2.3-.4,0,0-.1,0-.1,0-.2,0-.1.2-.2.3-.2,0-.2.2-.3.4,0,0,0,0,0,0s.1,0,.1,0ZM32.8,28c0,0,0-.1-.1-.1s0,0,0,.1c0,0,0,.1,0,.1s.1,0,.1-.1ZM33.1,26h0c0,0,0,0,0,0t0,0s0,0,0,0c0,0-.1.1,0,.1.1,0,0-.1.1-.2ZM33.7,25.5s0,0,0,0c.1,0,.1,0,.1-.1,0,0,0,0,0,0,0,0-.2,0-.3,0,0,0-.1,0,0,.2,0,0,.1.2.2,0ZM34.1,24.9c0,0-.1,0-.1,0,0,0,0,0,0,0,0,0,0,0,0-.1ZM34.3,25.1h-.1s0,0,0,0c0,0,0,0,.1,0,0,0,0,0,0,0ZM34.9,24.9s0-.1-.1-.1c-.1,0-.1,0-.1.1s0,.1.1.1c0,0,0,0,0-.1ZM37.5,29.4c0-.1.2-.1.2-.3-.2,0-.3.1-.3.2s0,0,0,0h0ZM38.4,28.1c0,.1,0,.2-.2.2,0-.1.1-.2.2-.2ZM38.5,28.6c0,0,0,0,.1-.1,0,0,0,0,0,0,0,0,0,.1-.1.1,0,0,0,0-.1,0ZM38.8,28.3c0,0,0,.1-.1.1,0,0,.1,0,.1-.1ZM39.2,28q0,.1-.1.2c0,0,0-.2.1-.2ZM40.3,15s0-.2,0-.3c.2-.7.6-1.3.9-1.8.3-.7.7-1.3,1.1-2l.3-.7c.1-.2.4-.2.6-.2.3,0,.6.2.9.1h0c.1.3.4.1.6.1s.2,0,.4.2c0,.1.2.2.3.3,0,0,.1.1,0,.1-.1.4-.2.7-.6,1-.3.1-.6.4-.8.8-.1.2-.4.3-.5.5-.2.3-.7.5-.9.9s-.5.2-.6.4c-.1,0-.1,0-.2.1,0,0,0,0-.1,0-.5,0-.7.4-.9.8,0,0,0,0,0,0,0,0,0,0-.1,0,0-.2.1-.3.1-.4-.3.1-.5.3-.7.6,0,0,0,.1-.2.1.2-.2.1-.5.4-.7ZM40.4,26.7c0,0,0,0,0,.1,0,0,0-.1,0-.1ZM40.6,26.6c0,0,0,.1-.2.1,0,0,0-.1.2-.1ZM41.9,25.1c0,0,0,.1-.2.2,0-.1,0-.2.2-.2ZM42.4,24.2c0,0,.1-.1.2,0,.1,0,0,0,0,.1-.1.2-.2.4-.4.6,0,0,0,.1-.2.1.2-.2.3-.5.5-.8ZM42.7,23.9c0-.1,0-.2.2-.2,0,.1-.2.1-.1.3,0,0,0,0-.1,0,0,0,0,0,0,0Z"/>
  <path class="cls-1" d="M38.4,33.9c0-.4-.2-.4-.5-.5-.1,0-.2-.1-.2-.2,0-.2-.3-.3-.3-.6s-.2-.2-.3-.4c0-.1,0-.2,0-.4.2-.7.6-1.3.9-1.9.3-.6.6-1.2.9-1.8,0,0,0-.1,0-.2.3-1,.6-1.2.7-1.5.1-.3.4-.5.5-.8.4-.9.9-1.7,1.3-2.5.4-.8.8-1.6,1.1-2.4,0-.2.1-.4.2-.5,0-.2.1-.4-.1-.5-.2,0,0-.2,0-.4,0,0,.1,0,.2,0,.5,0,.9.4,1.3.6.2.1.5.3.6.4.2,0,.3.2.3.4,0,.4,0,.9-.2,1.2-.3.8-.6,1.5-.9,2.3,0,.1-.1.3-.4.4-.1.1,0,.2-.1.4-.3.6-.6,1.2-.8,1.8-.1.1-.4.1-.5.3.2.1.1.3,0,.5-.1,0-.2.2-.1.3,0,0,0,0,0,0-.2.2-.2.4-.4.7s-.3.4-.3.7c0,.1-.1.2-.3.3-.1,0-.2.2-.1.4.1.3,0,.7-.2,1-.3.3-.4.6-.6,1,.3-.1.5-.4.7-.5.7-.7,1.5-1.4,2.4-2,.1,0,.2-.2.2-.3.1-.3.4-.5.6-.7.1,0,.1-.3.2-.4.1,0,.2-.2.3-.3.5-.4.9-1,1.3-1.5.6-.7,1.2-1.4,1.7-2.1.2-.4.5-.8.8-1.2.4-.5.6-1.2.9-1.7.3-.5.4-1.1.5-1.7.1-.5.2-1,.4-1.5.1-.4,0-.8-.4-1.1-.2-.1,0-.2,0-.3.2,0,.4,0,.5,0,.6,0,1.1.4,1.3.8.2.3.5.5.5.9,0,.2,0,.4,0,.7s0,0,0,.1c-.2.1-.3.4-.3.6-.1.4-.3.6-.5.9-.2.3-.5.5-.6.8-.2.4-.5.9-.9,1.2-.2.2-.2.5-.6.7-.1.7-.8,1-1.2,1.5-.2.5-.7.9-1.1,1.3-.1.2-.3.2-.5.2,0,0-.2,0-.2,0,0,0,.1,0,.2,0,0,0,.1,0,.1,0s0,0,0,0h0c-.1.3-.4.5-.6.8-.1.2-.3.4-.6.4,0,0-.1,0-.1,0,.1.3-.2.4-.4.6-.2.4-.6.7-.9,1-.2.2-.5.4-.6.7-.2.2-.4.3-.6.4,0,0-.2,0-.2.1,0,.1-.1,0-.2.1-.4.3-.6.7-.9,1-.2.3-.5.7-.9.9-.5.3-.7.8-1.1,1.2-.1.2-.5.2-.7,0,0,0-.1,0-.1-.1Z"/>
  <path class="cls-1" d="M71.7,22.5c0,.4-.4.5-.7.8,0,0-.1,0,0,.1s.1,0,.2,0c.1,0,.2-.2.4-.2-.2.2-.4.4-.6.6-.1,0-.2.1-.2.2-.1.1-.2,0-.4,0s-1.5,1-1.5,1.1c0,0,0,0,0,0,.3.1,0,.2,0,.3-.5.3-1,.6-1.5.9-.6.3-1.9.9-2.4,1.2-.3.2-.4.3-.2.6,0,.2.1.4.2.5.1.4.3.7.3,1.1s.1.7-.1,1c.1.3-.1.5,0,.8h0c-.2.4-.2.7-.3.9,0,0,0,.3-.2.3,0,.1,0,.2,0,.3-.3.3-.4.6-.8.7-.1,0-.2.1-.3.2-.2.1-.5.2-.8.3-.4.1-.9.2-1.3.2-.4,0-.8,0-1.2,0-.3,0-.6,0-.9,0s-.3,0-.4-.2c0,0,0,0-.1,0-.2,0-.4,0-.5,0-.5,0-.9-.2-1.3-.4-.5-.2-1-.4-1.5-.6-.2-.1-.5-.3-.7-.4-.1-.1-.2-.1-.4,0l-1.1-.4h-.2c-.4.2-.8.5-1.1.7-.6.3-1.2.6-1.7.9-.4.1-.8.4-1.2.4-.2,0-.6.1-.8,0-.1,0-.2,0-.2,0-.2,0-.4-.1-.4-.3,0-.1.2,0,.2-.1-.1,0-.1-.2-.2-.3,0,0,0-.1-.2-.1-.2,0-.3-.3-.3-.4v-.3c.3-.2.4-.5.5-.8,0-.2.2-.4.3-.6.1-.3.4-.6.4-1,0-.2.2-.3.4-.5.2-.4.5-.8.7-1.2l.9-1.6c.1-.1.2-.3.4-.4,0-.1.1-.2.1-.4,0,0,0,0,0-.1l1-1.8c.4-.3.5-.7.9-1,.3-.2.2-.4.4-.7.3-.3.1,0,.2-.5.2-.3.4-.5.6-.8s.4-.5.4-.7h0c.3-.3.5-.6.6-.9.1-.4.7-.5,1.2-.4.2,0,.4,0,.5,0,.3.2.7.1,1,.3.2.1.6.5.5.7,0,.4-.2.6-.5.9l-.9.9c-.3.3,0,0-.4.3-.2.2-.2.4-.5.6-.1,0-.2.2-.3.3-.1,0-.2.3-.3.4-.1.2-.2.4-.4.6-.1,0-.1.3-.3.4-.2.2-.3.4-.5.6s-.1.1-.3,0c.1.1.2.2,0,.3-.1,0-.1.1-.2.2,0,0,0,.2-.2.1-.1,0-.3,0-.4,0h0c-.1,0-.1.1-.2.2,0,0-.1-.1-.2-.2,0,0,0,0-.1,0s0,.1,0,.1,0,0,.1,0c.1,0,.1,0,.1.2,0,0,0,0,0,.1,0,0,.1,0,.1,0,0,0,0-.1,0,0,.1,0,.1-.2.1-.3.1,0,.2,0,.1.2,0,0,0,.1,0,.2h0s0,0,0,0c-.2,0-.3,0,0,.3-.2,0-.2,0-.4.2,0-.1-.4,0,0-.4-.2,0-.3.1-.4.2,0,0,0-.1,0-.2-.2,0-.3,0-.4.1,0,0,0-.3-.2-.2-.2.2-.3.4-.4.6.1,0,.2,0,.3-.2s.2-.2.4,0c0,0,.1,0,.1,0,0,0,0,0,.1,0h0c0,0,0,0-.1,0,0-.1.2,0,.3-.1,0,.2.2.1.3.2-.2,0,0,.2-.1.3,0,0-.1.2-.2.3,0,0-.1.1,0,.2.1,0,.1,0,.2,0t.1,0c0,.2-.1.4-.2.6-.2.3-.5.5-.6.7,0,0,0,.1-.2.1-.3,0-.4,0-.4.3s0,.3-.1.4c0,0-.1,0-.1,0,0,.2,0,.3-.2.4.1.3,0,.5-.2.7-.1.2-.3.4-.4.6,0,.1-.1.3-.2.4,0,.1-.1.2-.3.1,0,0,0,0-.1,0,0,0,0,0,.1.1.1.3,0,.6,0,.8,0,0,0,0,0,0,.4-.2.9-.3,1.3-.5.6-.2,1-.5,1.5-.7,0,0,.2,0,.2-.1,0,0,0,0,0-.1,0-.1.1-.2.2-.2.2-.1.5-.2.7-.3.2,0,.2-.1.3-.2,0,0,.1-.1.2,0,.3-.2.7-.5.9-.7.5-.3.8-.6,1.3-.9.3-.3.6-.5.9-.8,0,0,.1,0,.2,0h.2c0-.2,0-.2.1-.3l.4-.4.5-.5c.2-.2.4-.5.8-.6,0,0,0,0,0,0,0-.2.3-.3.4-.4.3-.5.8-.8,1.3-1.2h0c.2-.2.3-.5.5-.8,0,0,.1-.1.2,0,.1,0,0,0,0,.1,0,0-.1.1-.1.2.2-.2.5-.4.7-.7,0,0,.2-.2.2-.2.2-.1.3-.4.3-.6,0-.7.4-1.4.8-2.1.2-.4.2-.4.5-.7.5-.5.6-.7,1.2-1.2.3-.2.6-.4.9-.6.1,0,.2,0,.3,0,.4.1.7,0,1.1.1s.6.2.9.4c.1,0,.1.2.1.3s.2.2,0,.3c0,0,0,0,0,.1,0,.2,0,.3-.2.4-.2,0-.3.2-.4.3.5-.4-.6.4-1.1.7-.4.2-.6.5-.9.7-.1,0-.2.2-.4.4-.1.1-.2.3-.4.4-.1,0-.2.3-.2.4,0,.1-.1.3-.2.4-.1.1-.2.3-.2.5,0,.1,0,.3-.1.5-.1.1,0,.2,0,.3.1.4.2.8.1,1.2,0,0,0,0,0,.1,0,.2.1.4.1.6,0,.3.4.4.6.2.6-.4,1.9-1,2.5-1.3.7-.4,2.4-1.6,3-2,.4-.2.7-.5,1.1-.8s.1-.1.2-.1ZM47.7,32.4s0,0,0,0c0,0,0-.2,0-.2-.1,0,0,0-.1,0h-.1c0,.1-.1.2,0,.3s.1,0,.2-.1ZM48,32.6s0,0-.1,0c0,.1-.1.2-.1.3,0,0,0,0,0,0,.1,0,.1-.1.2-.2,0,0,0,0,0-.1ZM48.7,31h-.1c-.1.3-.1.3-.4.1h0c0,0,.1,0,0-.1,0,0-.1,0-.1,0-.2.3-.4.5-.5.9,0,0,0,0,0,0s0,0,0,0c.1-.1.2-.3.3-.5s0-.2.2,0c.1.1.2.1.3,0,0,0,0-.2,0-.3ZM48.1,32.1c-.1,0-.2.1-.2.3,0,0,0,0,.1,0,.1,0,0-.2,0-.3ZM48.2,32.7s.1,0,.1,0c.1,0,.1-.2.2-.3-.1,0-.2.1-.2.2,0,0,0,0,0,.1ZM48.2,31.9l.2-.3h0c0-.1,0-.1-.1,0-.1,0-.2.2,0,.4ZM48.4,33.1c0,0-.1,0-.2,0,.1,0,.2,0,.2,0ZM48.5,32.8h-.1c0,.1,0,.3,0,.3,0,0,0,0,0-.1.1,0,.2,0,.1-.1ZM48.5,30.7c0,0,.1,0,.1,0,.1-.2.2-.4.4-.7t0,0s0,0-.1,0c0,0-.1,0-.1.1,0,.2-.1.3-.2.4s-.1.1,0,.2ZM48.7,31c.1,0,.2,0,.2-.2,0,0-.1,0-.2.2h0ZM49.1,31.9c0-.2.1-.4.1-.4.2-.1,0-.2,0-.3,0,0-.1,0,0-.1,0,0,0,0,.1,0,.1,0,.2,0,.2,0,.1,0,.1-.1,0-.2,0,0-.1,0,0-.2,0,0,.1,0,.2,0,.1,0,.2,0,.1-.1h0c-.1,0-.4,0-.3-.1,0-.1,0-.3,0-.4,0,0-.1,0-.2,0s0-.1,0-.2c0,0,0,0,0-.1,0,0-.1,0-.1,0,0,0,0,0-.1.1,0,.1,0,.2.1.3,0,0,.1,0,0,.1,0,.1,0,.3-.2.4-.2.2-.2.4-.4.6,0,0,0,.1,0,.2.1,0,0-.2.2-.2,0,.3-.1.5-.2.7.2,0,.3-.2.3-.2ZM49,29.2l.2-.2s0,0,0-.1c0,0-.1,0-.2,0-.1,0,0,.2,0,.3ZM49.2,29.4s0,0,0,0c-.1,0-.1.1,0,.2,0,0,.1-.1.1-.2ZM49.3,29.3c.1,0,.1-.1.1-.3-.1,0-.2,0-.2.2,0,0,0,0,.1,0ZM49.4,29.5s0,0,0,0c0,0,.1,0,.1,0,0,0-.1,0-.1,0ZM49.5,29h0c0,0,.2,0,.2,0,.2.2.3,0,.5,0-.2,0-.1-.2,0-.2,0,0,0-.1,0-.2,0,0,.1,0,.1-.1,0-.3.1-.3.4-.3-.1,0-.1.2-.1.3,0,.1,0,.2-.2.2,0,0,0,0,0,0h0c0,0,0,.1,0,.1,0,0,0,0,.1,0,0,0,0,0,0,0,0,0,0,0,0,0,.2,0,.3-.1.2-.2,0-.1.2-.2.3-.4.2,0,.2-.2.1-.3-.2,0-.2.2-.4.2,0,0,.2,0,.1-.1,0,0,0,0,0-.1-.1,0-.2,0-.2.1h0c-.1.2-.2.5-.5.7-.1.1-.1.2-.2.3,0,.1-.1.3-.3.2-.1,0-.1,0-.2,0,0,0,0,0,0,0ZM49.5,28.3c.2,0,.2-.2.3-.3-.2,0-.2.1-.3.3ZM50.6,29c0,0-.1,0-.1,0-.1,0-.3.2-.4.4,0,0-.1.3.2.3-.4,0-.5.2-.7.4.1,0,.3,0,.3,0,0-.1.2-.1.3-.1.2,0,.2-.2.2-.3,0-.1-.1,0-.1-.1h0c.2,0,.3-.2.4-.3,0,0,0,0,0-.1ZM49.6,29.4c.1,0,.2-.1.1-.2h0c-.1,0,0,.1,0,.2ZM49.8,28.4c.1,0,.2,0,.1-.2.1,0,.1-.1.1-.2-.1,0-.1.1-.1.2,0,0-.2,0-.1.2ZM50.2,26.1s0,0,.1,0l-.2.3c0,0,0-.1,0-.2ZM50.2,27.2s0,0,0,0c0,0,0,0,0,0,.1-.2.2-.4.4-.5s0,0,0-.1c0,0-.1,0-.1,0,0,.2-.1.4-.3.6ZM50.5,27.3c0,0,.2,0,.2,0,0,0,0-.1,0-.2l-.2.3c-.1,0-.1.2-.1.3.1,0,.3-.1.1-.3ZM50.5,26s0,0,0,0c0-.2.2-.3.4-.4h0c0-.1,0-.1,0-.1t0,0c-.2.2-.3.4-.5.6,0,0,0,0,0,0ZM50.9,27.4c0,0,0,.1.1.1.1,0,.1-.1.2-.2,0,0,0-.1-.1,0s-.2,0-.2.2ZM51,25.1c0,0,.1-.1.1-.2,0,0-.1,0-.1,0-.2,0,0,.1,0,.2ZM51.1,25.8c0,0-.1.1-.1.2.1,0,.1-.2.1-.2,0,0,.1,0,.1,0-.1,0-.1,0-.1,0ZM51.2,24.8c.1,0,.1,0,.2-.1-.1,0-.1,0-.2.1ZM51.4,25.4s0,0,0,0c0,0,0,0,0,0s0,0,0,0c0,0,0,0,0,0ZM51.6,25.6c-.2,0-.2.2-.3.4,0,0,0,0,0,0s.1,0,.1,0c0-.1,0-.2.1-.3.1-.1.2-.2.3-.4,0,0-.1,0-.1,0-.2,0-.1.2-.2.3ZM51.4,28.1s.1,0,.1-.1,0-.1-.1-.1,0,0,0,.1c0,0,0,.1,0,.1ZM51.9,25.9h0s0,0,0,0c0,0,0,0,0,0,0,0-.1.1,0,.1.1,0,0-.1.1-.2h0ZM52.3,25.5c0,0,.1.2.2,0,0,0,0,0,0,0,.1,0,.1,0,.1-.1,0,0,0,0,0,0,0,0-.2,0-.3,0,0,0-.1,0,0,.2ZM52.8,25c0,0,0,0,0-.1,0,0-.1,0-.1,0,0,0,0,0,0,0ZM52.9,25.1c0,0,0,0,.1,0,0,0,0,0,0,0h-.1s0,0,0,0ZM53.5,24.8c0,0,0,.1.1.1,0,0,0,0,0-.1s0-.1-.1-.1c-.1,0-.1,0-.1.1ZM63,30.3c0-.1.2-.2.2-.3v-.6c0-.3,0-.5,0-.8,0-.2-.2-.3-.5-.2-.5.2-.9.5-1.4.7-.4.1-.8.2-1.1.5-.2.1-.5.1-.7.2-.3.2-.6.3-.9.4-.7.3-1.4.4-2,.7-.5.2-1.1.3-1.5.7-.1.1-.3.2-.4.4,0,0,.2.2,0,.4h0c.2.1.4.4.7.4.8.2,1.5.4,2.4.4s.4,0,.5,0c.3,0,.6-.1.9,0,.1,0,.3,0,.5,0,.4,0,.8,0,1.2-.2.6-.1,1.2-.4,1.5-.9.3-.3.4-.7.5-1.1,0-.1.3-.3.2-.4-.2,0-.1,0-.1-.2ZM57.3,28.5c-.2,0-.3.2-.5.4l-.2.2h.1c0,0,0,0,.1,0,0,0,0,0,0,0-.3.1-.4.3-.6.5h0c.1,0,0,.1,0,.2s0,0-.1,0c-.1,0,0,0,0-.1h0s0,0,0,0c-.3.3-.5.5-.8.7.2,0,.5-.2.7-.2s0,0,0,0c.2-.3.6-.5.8-.9.3,0,.2-.5.7-.4h.1c.1-.4.7-.5.9-.9,0,0,0,0,.1,0,.2-.1.4-.2.5-.4,0,0,0-.2.2-.2.4-.1.5-.5.8-.6,0,0,0-.2.2,0,.1,0,.1.1,0,.2-.1.1-.3.3-.4.4s0,.2-.1.3c-.3.2-.5.6-.9.7,0,0-.1.1-.2.2,0,.1-.1.2-.2.3-.4.3-.7.6-1,1,.1,0,.2,0,.4,0,.7-.2,1.4-.5,2.1-.8.6-.3,1.3-.5,1.9-.8.3-.1.6-.3.9-.4,0,0,.1-.1.1-.2-.1-.4-.1-.7-.2-1.1,0-.5-.2-1-.2-1.4,0,0,0-.2-.1-.2-.2,0-.1-.2,0-.2.2-.1.2-.3.1-.5,0,0,0-.2,0-.2,0,0-.1,0-.2.1-.5.4-.8,1-1.3,1.3-.5.4-.9.8-1.3,1.2-.1.1-.2.3-.4.4-.3.3-.6.6-.9.8-.1.1-.3.2-.4.4l-.2.3s0,0,0,0c0,0,0,.1-.1.1h0s-.1,0-.2,0ZM57.7,33.8c-.2,0-.3-.2-.5,0,.2,0,.4.1.5,0ZM57.2,28.6c0,0,0,0,.1-.1,0,0,0,0,0,0,0,0,0,.1-.1.1,0,0,0,0-.1,0ZM57.8,28.3c0,0,0-.2.1-.2q0,.1-.1.2ZM58.7,15.7c.2-.2.1-.5.4-.7s0-.2,0-.3c.2-.7.6-1.3.9-1.8.3-.7.7-1.3,1.1-2l.3-.7c.1-.2.4-.2.6-.2.3,0,.6.2.9.1h0c.1.3.4.1.6.1s.2,0,.4.2c0,.1.2.2.3.3,0,0,.1.1,0,.1-.1.4-.2.7-.6,1-.3.1-.6.4-.8.8-.1.2-.4.3-.5.5-.2.3-.7.5-.9.9s-.5.2-.6.4c-.1,0-.1,0-.2.1,0,0,0,0-.1,0-.5,0-.7.4-.9.8,0,0,0,0,0,0,0,0,0,0-.1,0,0-.2.1-.3.1-.4-.3.1-.5.3-.7.6,0,0,0,.1-.2.1ZM59,27.4c0-.2.1-.3.3-.4,0,.1-.1.3-.3.4ZM59.2,26.9c0,0,0-.1,0-.1,0,0,0,0,0,.1ZM59.2,26.7c0,0,0-.1.2-.1,0,0,0,.1-.2.1ZM60.4,26.5s0,0,.1,0,0,0,0,0h0c0,0-.1,0-.1,0ZM60.6,26.1c0,0,0-.1.1-.1h.4c.1,0-.1.2-.2.4,0,0-.1-.1-.2,0,0,0,0-.1,0-.2ZM61.1,25.9s0,0,0,0h0c0-.2,0-.3.2-.2,0,0,0,0,0,.1,0,0-.1.2-.2.1ZM61.3,25.5c.2,0,.1-.2.3-.2,0,.3,0,.3-.3.2ZM61.7,23.6c0,.1-.2.1-.1.3,0,0,0,0-.1,0,0,0,0,0,0,0,0-.1,0-.2.2-.2ZM61.5,33.4s0,0,0,0,0,0,0,0c0,0,0,0,0,0s0,0,0,0ZM62.2,33.1s0,0-.1,0c0,0-.1,0-.1,0s0,0,.1,0c0,0,.1,0,.1-.1ZM62.8,33c0,0-.1,0-.2,0h-.2c0,0,.1,0,.1,0,.1,0,.2,0,.3,0h0ZM63.1,31.1s0,0,0-.1c0,0-.1,0-.1,0,0,0,0,.1.1,0ZM63.2,32.2s0,0-.1,0,0,0,0,0,0,0,0,0c0,0,0,0,0,0ZM67.3,25.9h-.1c0,0-.1,0-.2,0,0,0-.8.4-.9.5,0,0-.1,0-.1,0,0,0,.1,0,.2,0,.8-.4.9-.4,1.1-.5,0,0,0,0,0,0ZM68.6,25.2c-.4,0-.5,0-.6.3.2,0,.4-.2.6-.3ZM70.2,24.1c0,0,0,0-1.2,1,0,0,0,0,0,0,0,0,1.1-1,1.2-1s.1,0,0,0ZM70.5,23.7s0,0,0,0c-.1,0-.1,0-.1.1,0,0,0,0,0,0,.1,0,.1,0,.1-.1ZM72.7,21.8c-.1.2-.4.3-.5.5,0,.2-.2,0-.3,0,0-.2.2-.3.4-.4.2-.2.2-.3.2-.5h.4c0,0,0,.2-.1.4Z"/>
  <path class="cls-1" d="M119.6,10.7c0,.3-.3.4-.7.3h-.9c-.6-.1-1.2-.2-1.9-.2-.5,0-.9,0-1.4,0s-.5,0-.7,0c-.4,0-.8,0-1.2,0h-.1c-.6,0-.5,0-1.1,0-.7.1-.9,0-1.5.1-.1,0-.2,0-.2,0-.2,0-.4,0-.6,0-.2,0-.5,0-.7,0-.5,0,.2,0-.3,0-.3,0-.6.1-.8.1-.4,0-3.1.4-3.8.5-.3,0-.5,0-.8,0-.4,0-.8.1-.9.6,0,0-.2.2-.4.3,0,0,0,.1.1.2-.1,0-.2,0-.3.1,0,.2,0,.4-.1.5-.2.1-.2.4-.4.6,0,0,0,.1-.1.1-.3.1-.4.3-.4.5,0,.1-.1.2-.2.4,0,.4-.3.5-.8.4,0-.2.1-.3.3-.3s.3,0,.3-.2c-.1,0-.3,0-.4,0,.4-.2.3-.5.4-.7,0-.1.1-.2.2-.3,0,0,0,0,0-.1,0-.2.2-.4.3-.6,0,0,.1-.1.1-.2.1-.1.2-.2.3-.3,0-.1.2-.2.4-.3-.2-.1-.2-.3,0-.4-.3-.1-.5,0-.7,0-.3,0-.5,0-.8,0s-.7,0-1.1.1c-.3,0-.7,0-1.1.1-.2,0-.5,0-.7,0h-.3c-.2,0-.3.1-.5.1-.5,0-.9.2-1.4.2,0,0-.2,0-.2,0,0,0-.2,0-.2,0-.5.2-.9.3-1.5.3-.2,0-.4,0-.6.1h-.9c-.4.1-.8.1-1.2.4,0,0-.2,0-.3,0-.5,0-.9.1-1.4.2-.6.1-1.2.3-1.8.4-.2,0-.6,0-.9.1,0,0,0,0,0,0-.4,0-.7.2-1.1.3,1.3-.2,1-.2.6,0-.5.1-.9.2-1.5.4-.1,0-.2,0-.4.1s-.4.1-.5.1c-.2,0-.4.1-.5.2-.4,0-.6.1-1,.3-.4.2-.9.4-1.3.8h-.2c-.4.1-.6.4-.8.6-.2.1-.2.3,0,.5.2.3.4.5.5.7.6.6,1.1,1.2,1.7,1.8.3.2.7.6,1.1.7.3.1.4.5.2.7-.2.4-.4.4-.7.3l-1.2-.4c-.2,0-.4-.2-.5-.3,0,0-.1-.1-.1-.1-.7-.5-1.2-1.1-1.6-1.8-.2-.4-.6-.9-.7-1.3-.4-.8-.5-1.6-.3-2.5,0-.2.2-.3.3-.4.4-.2.6-.4,1-.7,0,0,.1-.1.1-.2.8-.3,1.5-.6,2.4-.9,0,0,.1,0,.2,0,.1,0,.3,0,.5,0s.3,0,.4-.2c0,0,.1-.1.2-.1.1,0,.1,0,.2.2,0,0,0,0,0,.1.3,0,.5-.1.7-.2,0-.3-.4,0-.4-.3.3,0,.7,0,.9-.3.5-.1.8,0,1.2-.1h.4c0,0-.1-.2,0-.2.2-.2.5,0,.5,0s.2.3.5.3.2.2.2.3c-.4.2-.7.1-.9-.2,0,0-.1-.2-.2-.2h0c0,.1,0,.2,0,.2-.1,0-.3,0-.5,0,0,0,.1,0,.2.1,0,0,.2,0,.3,0q0,.1-.7.2s0,0,0,0c0,0,0,0,0,.1l.8-.2c0,0,0,.1,0,.2.2,0-1.3.5-1.1.4.4,0,.6-.2,1-.3.1,0,.2,0,.3,0,.2,0,.5,0,.7,0,.1,0,.4,0,.5,0,.4,0,.8-.2,1.3-.3,0,0,.2,0,.4,0,.6,0,1.2-.1,1.7-.2.5-.1,1.1-.2,1.5-.3s.6,0,.8,0,.5,0,.7,0c0,0,.1,0,.2,0,.3,0,.5,0,.7-.2.1-.1.4-.3.6-.2.4.2.9,0,1.3-.1.3,0,.5-.1.8,0,.6,0,1.1,0,1.6,0,.2,0,.4,0,.5-.2.2,0,.4-.1.7-.1.2,0,.4,0,.6,0s.3,0,.4-.1c.2,0,.4,0,.5,0,.2-.1.4-.2.4-.5-.2,0-.4,0-.6,0,.1-.1.2,0,.3,0q.4,0,.6-.4c0-.1.2-.3.2-.5s0,0,.1,0c.2-.2.3-.3.4-.4.6-1,1.3-1.9,1.9-2.9.5-.4.8-.9,1.1-1.4.3-.4.6-.9.9-1.3.2-.4.5-.7.7-1,.2-.4.6-.8.8-1.2.1-.1.1-.2.2-.4,0-.2.2-.3.3-.3.3-.3.5-.5.8-.7,0,0,.1,0,.2-.1.1,0,.2,0,.3,0,0,.1,0,.3-.1.4-.1.2-.4.4-.6.5,0,0,0,.1,0,.2l-.6.7c-.1.2-.3.4-.5.7-.2.3-.3.4-.5.7-.4.5-.7,1-1,1.5,0,.1-.2.4-.4.5-.2.4-.5.8-.7,1.2,0,0-.2.2-.3.3-.1.2-.4.4-.5.7-.1.2-.2.4-.5.7-.2.4-.6.8-.9,1.3,0,0,.1,0,.1.1,0,.1,0,.2-.1.2q-.1,0-.2.1c.1,0,.1.1.2.2-.5.1-.7.4-1,.8.1.1.2.2.4.1.3,0,.5,0,.8,0s.4,0,.5,0c.2,0,.4-.1.5,0,.1,0,.2,0,.3,0,0,0,.2,0,.2,0,.5.1-.2,0,.3-.1.1,0,.3,0,.5,0,.2,0,.3,0,.5-.1,0,0,0,0,.2-.1,0,0,0,.3.2.3.2,0,.2-.1.3-.3.4,0,.7,0,1.1,0h-.4c-.2,0-.4,0,.6,0,0,0-.1,0-.2,0h.5s0,0,.1,0c.2-.2.6-.2.9-.2.1,0,.3,0,.4,0,.1,0,.2-.1.4-.1-.3.1-.1.1.1,0,.2,0,.4,0,.5,0,0,.1.2.2.4.1s.1,0,.2-.1c.2,0,.4.1.6.1.2,0,.6-.1.7-.3,0,0-.1-.1-.2-.1,0,0-.2,0-.2,0h-.5c-.2,0-.4-.2-.4-.3s0-.2.1-.2c.1,0,.3,0,.5,0-.1.1-.2.3-.4.4.4,0,.5,0,.7,0,.1,0,.4,0,.5.1.1,0,.3.1.3.3,0,.3,0,.3.3.2.3-.1.6-.1.8-.3.1-.1.2,0,.3,0,.1.1.2.1.5,0,.1,0,.3,0,.5,0,.3,0,.6,0,1,0,0,0,.1,0,.2,0h.3s0,0,0,0c-.1,0-.2-.1-.4-.2,0-.1.2-.1.3-.2.2-.1.3-.2.1-.4,0,0,0-.1-.1-.2.4,0,.7.1.9.3,0,0,.1.2.3.2.2.2.3.5.4.7,0,.1.1.3.2.4ZM82,13.2c0,0,.1,0,.2,0,0,0,0,.1,0,.1-.1,0-.2,0-.2,0ZM91.4,24.7c-.2.2-.2.4-.5.7,0,.2-.1.4-.2.6-.1,0-.2.2-.3.2-.1.1-.2.2-.2.4,0,.3-.1.6-.4.8-.2.1-.2.4-.4.7,0,0,0,.1-.1.2,0,0-.1.1-.1.3,0,0,0,0-.1.1-.1.1-.2.3-.1.4,0,0,0,0,0,0-.2.1-.3.4-.4.5,0,.1-.1.2-.2.4,0,0,0,0,0,0-.1.5-.5.9-.7,1.3,0,.2,0,.4-.2.4-.2.6-.6,1-.7,1.6,0,0,0,0,0,0-.2.1-.2.4-.2.6-.1.3-.3.6-.5.9-.1.3-.2.6-.3.9,0,0,0,.2-.2.4,0,.2-.1.3-.2.5-.1.3-.2.7-.4,1,0,.1-.4.2-.6.2-.5-.1-.9-.4-1.1-.8-.1-.2-.2-.5-.5-.7-.2,0-.2-.4-.1-.6.2-.3.3-.7.4-1q0,0,0,0c.4-.3.4-.7.5-1.1.3-.5.6-1,.8-1.6.1-.3.2-.5.4-.7,0-.2.2-.4.4-.6,0,0,.1-.2.2-.2.2-.1.3-.2.1-.4,0-.1,0-.2.2-.3.3,0,.3-.2.4-.4,0-.1,0-.2.2-.4.1,0,.1.2.3.2.1,0,.1-.2.2-.3t0,0c-.5-.1-.5-.1-.4-.5,0-.1.1-.3.2-.4,0,0,0-.2.2-.2,0,0,.2,0,.3,0,0,0,.1.1.2.2,0,0,.1-.2.2-.3-.2,0-.3,0-.5-.1,0,0-.1-.2,0-.2.1-.2.2-.5.4-.7,0,0,0,0,.1,0,.1,0,.2,0,.3,0,0,0,0,.1,0,.2,0,0,0,.1,0,.2.3-.1.5-.4.4-.6-.1,0-.1,0-.3,0-.3-.4.1-.5.3-.7,0,.1,0,.2,0,.4.2,0,.3-.2.3-.3,0-.1-.2-.2-.4-.3,0,0,.2,0,.4,0,.4,0,.4,0,.3-.4,0,0-.1,0-.1,0,0,0,0,0-.1,0,0-.3.1-.5.2-.7.1.1.2.2.2.3,0,0,.1,0,.1,0,.1-.2.3-.5.5-.7.1-.3.3-.6.5-.8,0,0,0,0,0-.1s0,0,0,0c0,0-.1,0-.1,0,0,0-.1.1-.1.2-.1.2-.2.2-.4.2.1,0,.1-.1.1-.2.2-.5.5-1,.8-1.5h0c.1-.4.3-.6.5-.9.1-.2.3-.4.3-.6,0-.2.2-.3.6-.2l-.2-.2c.2-.7.5-1.4.9-2.1.4-.5.6-1.1.9-1.7.4-.6.7-1.2,1-1.8,0,0,0-.2,0-.3.1-.2.3-.3.5-.2h.2c.6,0,1.2.2,1.7.4.2,0,.4.3.5.5,0,.3,0,.6,0,.9-.2.2-.3.5-.5.6-.4.4-.7.8-.9,1.2-.3.3-.5.6-.6.9-.2.2-.2.5-.5.6,0,0,0,0,0,0,0,.5-.5.9-.7,1.4,0,.3-.3.5-.4.8,0,.1-.1.2-.2.3,0,0,0,0,0,0-.1.4-.4.6-.5,1,0,.1,0,.3-.3.4,0,0-.1.1-.1.2,0,0,0,.2-.2.4-.2.2-.4.4-.4.7s-.2.5-.4.7ZM83,49.4c-.1,0-.2,0-.4,0,0-.1.1-.2.1-.3,0-.1.1-.3.3-.4.1.3,0,.4,0,.7ZM83.6,48c0,.1-.1.1-.2,0,0-.1.1-.2.2-.1,0,0,0,0,0,.1ZM84.1,46.2c.2.3-.1.5-.2.7,0,.2-.1.5-.2.7,0,0-.1,0-.1,0,0,0-.1-.1,0-.2,0-.3,0-.5.2-.8.1-.1.2-.4.5-.5ZM84,13.1s0,0,0,0c0,0,0,0,0,0s0,0,0,.1c0,0,.1,0,0,0ZM85.6,43.5c0,0-.1.2-.2.3,0,0-.1,0-.2.2,0,0-.1.1-.1.2,0,.2,0,.3-.2.5,0,0,0,.1,0,.2,0,.2-.1.4-.2.6s-.1.2-.2.2c0,0-.2,0-.2,0v-.3c.3,0,.3-.3.1-.5.4-.4.4-.8.5-1.2,0-.1,0-.3.2-.4,0-.2.2-.3.3-.2.2,0,.3.2.2.4ZM85.2,12.9h0c-.2,0-.4,0-.3,0,.1,0,.2,0,.2,0-.4-.1-.5,0-.6.1.2,0,.4,0,.7-.1ZM85.2,32c0,0-.1-.1-.1-.1-.1,0-.2.1-.2.1,0,0,0,.2,0,.3.2-.1.3-.2.2-.3ZM88.7,36.8c0,0-.1.1,0,.2,0,.2,0,.4-.2.5,0,0,0,0,0,.1,0,0,0,.1-.1.2,0,.1,0,.2-.1.3-.2.1-.2.3-.4.4,0,0,.1,0,.1,0h0c-.3.4-.4.7-.5,1.1-.1.1-.1.3-.3.3-.1,0-.2.2-.3.3v.2c.2,0,.2.1.2.1-.3,0-.2.4-.5.4,0,0,.1.1,0,.3-.1.2-.3.5-.4.8,0,.1-.2.3-.2.4-.1.3-.3.4-.6.1,0-.2.2-.5.3-.8,0-.1.2-.2.3-.2,0,0,.1-.1.2-.3-.1-.4,0-.6.2-.9,0-.2.2-.5.3-.7,0,0,0-.2.1-.2.3-.4.5-.9.6-1.3.2-.3.4-.7.5-1,.2-.3.4-.5.5-.8,0,0,.1-.1.2,0,.1,0,.1.1,0,.2ZM86.2,30s0,0,0,0c0,0,0,0-.1,0,0,0,0,0,.1,0,0,0,0,0,0-.1ZM86.6,12.4c0,0,0-.1,0-.1,0,0,0,0,.1,0,0,0,0,0,.1,0,0,0-.1,0-.2.2ZM86.8,28.9c0,0,0,0,0-.1,0,0,0,0,0,0h0c0,0,0,0,.1,0ZM87.1,12.9c-.1-.1-.1-.3,0-.4.2,0,.4,0,.5,0,.1,0,.2-.2.4,0,0,0,0,0,0,.1-.1,0-.2.1-.3.2s-.5.1-.5,0ZM87.2,12.1c.1-.2.4-.2.6-.3,0,0,.2,0,.3,0,.2,0,.3,0,.3,0,0,0,0,.2-.2.2-.2,0-.5,0-.7,0-.1,0-.2,0-.3,0ZM88.7,11.9s0,0-.1,0c.3-.2.6-.2.9-.2.1,0,.2,0,.3.1-.4,0-.7.1-1.1.2ZM89.3,35.6c0,.4-.2.5-.7.6,0-.2.2-.4.4-.6,0,0,.1,0,.3,0ZM88.9,12.2c.4,0,.7-.2,1.1-.3.4,0,.5,0,.7.4-.3.1-.5.3-.7.3-.2,0-.6.1-.8,0,0,0,0-.2-.1-.4ZM89,24s0,0,0-.1c.1-.1.2-.2.4-.2.2.2.1.4-.2.5,0,0,0,0,0-.1ZM89.7,34.9c-.2,0-.3,0-.5-.1,0-.1,0-.3.3-.3.2,0,.2.2.2.4ZM89.7,34.4c0-.1-.1-.2-.1-.2,0,0,.1,0,.1,0h0c0,0,0,.2,0,.2ZM90.4,32.7c0,.2,0,.2-.1.6-.2-.3.1-.4.1-.6ZM90.9,11.6c-.1,0-.2,0-.4-.1,0,0,0,0,0,0,.1,0,.2,0,.4,0,0,0,.1,0,.1.1,0,0-.1,0-.1,0ZM90.9,32c.1.1,0,.2-.1.3,0,0,0,.1-.1.2,0,0-.1,0-.1,0,.1-.2,0-.4.4-.5ZM90.7,21.7s0,0,0,0c0,0-.2,0-.2,0h0c0,.1,0,.1,0,.1,0,0,0-.1.1-.2ZM91.1,12.1c0-.2,0-.2.2-.3.1.1.2.1.3.2-.3.2-.5.2-.5,0ZM91.5,30.7c0,0-.1.2-.1.3,0,0-.1.2-.2.3,0-.2.1-.5.4-.6ZM91.3,31.7s0,0,0,0c0,0,0,0,0,0,0,0-.1,0-.1,0h.1ZM91.7,30.3c-.1.2-.1.3-.2.4-.2-.2-.2-.2.2-.4ZM91.6,11.2c.1,0,.2,0,.4,0,0,.2-.2.2-.3.2s-.1,0,0-.2ZM91.8,29.8q0,.2-.1.3c0-.1.1-.2.1-.3ZM91.8,30.8h0c0,0,0,0,0,0,0,0,0,0-.1,0,0,0,0,0,.1,0ZM92.3,11.8c0,0-.2.2-.2.2-.2,0-.2-.1-.2-.2,0-.1.2,0,.4,0ZM92.2,30.1h0c0,0,0,.1,0,.1h0c0,0,.1-.1.1-.1ZM92.8,28.6c0,.1.1.3,0,.4,0,0-.1,0-.5,0,0-.1.1-.2.2-.4.1,0,.2,0,.2,0ZM93.1,11.3c-.2,0-.5.2-.5-.1,0,0,.1,0,.2,0,.6,0,1.1,0,1.6-.2,0,0,0,0,.1,0,0,0,.1,0,.2,0,0,0,0,.1,0,.1-.2,0-.5,0-.6,0-.2,0-.4,0-.5.1,0,.2.2.3.4.5-.4,0-.5.1-.6.2,0,.1-.2.1-.4.1s-.1-.1-.2-.1c.3-.2.4-.4.5-.7ZM93.4,27.4s0,0,.1,0v.4c-.2,0-.2,0-.3,0,0,0,0-.1,0-.2-.3,0-.2.4-.5.4,0-.3.2-.8.6-1.1.1,0,0,.2,0,.4ZM95.7,23.7c-.1.1-.2.2-.3.3,0,.1.1.3,0,.4-.2,0-.2,0-.4-.1,0,0,0,.1,0,.2.2.1.2.3.1.5-.1,0-.2,0-.4-.1,0,.1,0,.2,0,.2q.2.3-.2.4c0,0-.1,0-.2,0q.3.4.1.6c-.1,0-.2,0-.3,0,0,0,0,0,0,0v.2c.1,0,.1.1,0,.2h-.6s0-.1,0-.2c0-.1.1-.3.2-.4.3-.5.5-1,.8-1.6.2-.1.2-.4.4-.6,0,0,0-.1,0-.2.3-.2.4-.2.7,0ZM94.3,11.4c.3-.2.5-.2.7-.1-.1.2-.3.2-.4.4l-.3-.2ZM95.1,10.9c0-.1,0-.2.1-.1,0,0,.1,0,.2,0h0c0,0-.3,0-.3,0ZM99.7,15.9c0,.3-.1.5-.1.7-.1.2-.4.3-.6.4h0q.2.4,0,.7s-.1,0-.2,0c0,.3-.1.5-.2.7,0,0,0,0-.1.1-.1.1-.1.1-.4,0,0,0,0,0,0,0-.2,0-.1.2,0,.2.3.4,0,.7-.4.8-.3,0-.3.2-.4.3.2.3.2.4-.2.5,0,0,.1,0,.1.1.2.2.2.4,0,.4h-.2c-.1.1-.3.2-.3.4h.2c0,0,.1,0,.2,0-.1,0-.1.1-.2.2,0,0-.1.1-.1.2,0,.2-.1.4-.3.4,0,0,0,.1,0,.2q0,.2-.3.3c0,0,0,0-.1,0,0,0,0,0-.1.1,0,0,.1,0,.2.1s0,.1,0,.2c0,0-.1,0-.2,0s-.3,0-.4,0c0-.1,0-.3,0-.3.1-.1.2-.3.3-.4.1-.3.3-.7.5-1,0-.1.1-.2.2-.4.1-.2.2-.4.5-.4s0,0,.2-.1c-.2,0-.2,0-.4,0,0,0,0-.1,0-.2.3-.3.4-.6.5-.9l.3-.4c0-.1.1-.2.2-.3.1-.3.3-.6.4-.9.3-.5.5-.9.8-1.4.1-.1.2-.3.3-.4,0,0,0,0,0,0,.2,0,.4,0,.6-.2ZM95.6,11.3s0,0,0,0c0,0,.2,0,.2,0,0,0,0,0,0,0,0,0,0,0-.2,0ZM96,11.4c.1,0,.2,0,.2,0,0,0,0,0,0,0,0,0,0,0-.1,0,0,0,0,0-.2-.1ZM97.4,11c-.3.2-.7.1-1.2.2,0,0,0-.2,0-.2.4,0,.7-.1,1.1,0ZM96.4,10.7c.4-.1.8-.3,1.2-.1-.4.1-.8.3-1.2.1ZM97.8,11.3h0c0,0,0,0,0,0h0c0,0,0,0,0,0ZM98.6,10.5c0,0-.1,0-.2-.1.1-.1.3-.1.4-.2.4,0,.8,0,1.2-.2.1,0,.2,0,.3,0,0,0,0,0,0,0-.1,0-.2,0-.3,0-.2,0-.4,0-.5,0-.3,0-.5,0-.9.2ZM99.2,11.2c-.2.1-.2,0-.4,0,.2,0,.3-.1.4,0ZM99.8,10.6c-.1,0-.2.1-.2.1,0-.1,0-.2.2-.1ZM100.6,10.6c-.2,0-.3,0-.5,0,.2-.2.3-.2.5,0ZM106,9.5s0,0,.1-.1c0,0,.1,0,.1.1s0,0-.1,0,0,0-.1,0ZM107,9.4s0,0,0,0c0,0,0,0,0,0h0c0,0,0,.1-.1.1ZM108.9,9c0,0-.1,0-.2,0,0,0,0,0-.1,0-.3,0-.5,0,.4,0ZM108.6,9.3c0,0,.1-.1.1-.1,0,0,0,0,0,.1,0,0-.1,0-.1,0ZM109.6,9c.8-.2,1.1-.2,1.8-.2,0,0,.2,0,.2,0,0,0,0,0,0,0,0,0,0,0-.1,0-.8,0-1,.1-1.7.2,0,0,0,0-.2,0ZM112.3,10.1h-.1c0,0,0,0,0,0-.2,0-.3,0,.2,0ZM111.9,8.9h.2c0,0,0,0,0,0,.1,0,.4,0,.7,0-.2.1-.5.1-.8.1-.3,0,.2,0-.1,0,0,0,0,0,0,0ZM113.2,8.9c0,0,0,0,.1-.1.7,0,1.5,0,2.2,0,0,0,.2,0,.3,0h0c0,0-.4.1-.4.1,0,0-.1,0-.2,0-.6,0-1.1,0-1.6,0-.1,0-.3,0-.5,0ZM116.8,8.8c.1,0,.2,0,.4,0q-.2.1-.4,0Z"/>
  <path class="cls-1" d="M95.7,34.3c-.2,0-.4-.1-.4-.3,0-.1.2,0,.2-.1-.1,0-.1-.2-.2-.3,0,0,0-.1-.2-.1-.2,0-.3-.3-.3-.4v-.3c.3-.2.4-.5.5-.8,0-.2.2-.4.3-.6.1-.3.4-.6.4-1,0-.2.2-.3.4-.5.2-.4.5-.8.7-1.2l.9-1.6c.1-.1.2-.3.4-.4,0-.1.1-.2.1-.4,0,0,0,0,0-.1l1-1.8c.4-.3.5-.7.9-1,.3-.2.2-.4.4-.7.3-.3.1,0,.2-.5.2-.3.4-.5.6-.8s.4-.5.4-.7h0c.3-.3.5-.6.6-.9.1-.4.7-.5,1.2-.4.2,0,.4,0,.5,0,.3.2.7.1,1,.3.2.1.6.5.5.7,0,.4-.2.6-.5.9l-.9.9c-.3.3,0,0-.4.3-.2.2-.2.4-.5.6-.1,0-.2.2-.3.3-.1,0-.2.3-.3.4-.1.2-.2.4-.4.6-.1,0-.1.3-.3.4-.2.2-.3.4-.5.6s-.1.1-.3,0c.1.1.2.2,0,.3-.1,0-.1.1-.2.2,0,0,0,.2-.2.1-.1,0-.3,0-.4,0h0c-.1,0-.1.1-.2.2,0,0-.1-.1-.2-.2,0,0,0,0-.1,0s0,.1,0,.1,0,0,.1,0c.1,0,.1,0,.1.2,0,0,0,0,0,.1,0,0,.1,0,.1,0,0,0,0-.1,0,0,.1,0,.1-.2.1-.3.1,0,.2,0,.1.2,0,0,0,.1,0,.2h0s0,0,0,0c-.2,0-.3,0,0,.3-.2,0-.2,0-.4.2,0-.1-.4,0,0-.4-.2,0-.3.1-.4.2,0,0,0-.1,0-.2-.2,0-.3,0-.4.1,0,0,0-.3-.2-.2-.2.2-.3.4-.4.6.1,0,.2,0,.3-.2s.2-.2.4,0c0,0,.1,0,.1,0,0,0,0,0,.1,0h0c0,0,0,0-.1,0,0-.1.2,0,.3-.1,0,.2.2.1.3.2-.2,0,0,.2-.1.3,0,0-.1.2-.2.3,0,0-.1.1,0,.2.1,0,.1,0,.2,0t.1,0c0,.2-.1.4-.2.6-.2.3-.5.5-.6.7,0,0,0,.1-.2.1-.3,0-.4,0-.4.3s0,.3-.1.4c0,0-.1,0-.1,0,0,.2,0,.3-.2.4.1.3,0,.5-.2.7-.1.2-.3.4-.4.6,0,.1-.1.3-.2.4,0,.1-.1.2-.3.1,0,0,0,0-.1,0,0,0,0,0,.1.1.1.3,0,.6,0,.8,0,0,0,0,0,0,.4-.2.9-.3,1.3-.5.6-.2,1-.5,1.5-.7.3-.2.7-.5,1.1-.6.5-.3,1.1-.8,1.6-1.1.5-.3.8-.6,1.3-.9.3-.3.6-.5.9-.8,0,0,.1,0,.2,0,0,.1-.2.2-.2.3h-.1c0,.1-.2.2-.1.3,0,0,.2,0,.3,0,0,0,0,0,.1,0,0,0,0,0,0,0-.4.2-.5.4-.7.7-.3.3-.6.6-1,.9-.3.1-.5.4-.7.6-.3.2-.8.6-1.2.8-.2.1-.3.3-.6.4-.4.1-.8.4-1.1.6-.6.3-1.2.6-1.7.9-.4.1-.8.4-1.2.4-.2,0-.6.1-.8,0-.1,0-.2,0-.2,0ZM95.8,32.4s0,0,0,0c0,0,0-.2,0-.2-.1,0,0,0-.1,0h-.1c0,.1-.1.2,0,.3s.1,0,.2-.1ZM96.1,32.7s0,0,0-.1c0,0,0,0-.1,0,0,.1-.1.2-.1.3,0,0,0,0,0,0,.1,0,.1-.1.2-.2ZM96,31.9c.1-.1.2-.3.3-.5s0-.2.2,0c.1.1.2.1.3,0,0,0,0-.2,0-.3h-.1c-.1.3-.1.3-.4.1h0c0,0,.1,0,0-.1,0,0-.1,0-.1,0-.2.3-.4.5-.5.9,0,0,0,0,0,0s0,0,0,0ZM96.3,32.1c-.1,0-.2.1-.2.3,0,0,0,0,.1,0,.1,0,0-.2,0-.3ZM96.4,32.7c.1,0,.1-.2.2-.3-.1,0-.2.1-.2.2,0,0,0,0,0,.1,0,0,.1,0,.1,0ZM96.6,31.7h0c0-.1,0-.1-.1,0-.1,0-.2.2,0,.4l.2-.3ZM96.6,33.1c0,0-.1,0-.2,0,.1,0,.2,0,.2,0ZM96.5,33c.1,0,.2,0,.1-.1h-.1c0,.1,0,.3,0,.3,0,0,0,0,0-.1ZM96.7,30.7c.1-.2.2-.4.4-.7t0,0s0,0-.1,0c0,0-.1,0-.1.1,0,.2-.1.3-.2.4s-.1.1,0,.2c0,0,.1,0,.1,0ZM97,30.8s-.1,0-.2.2h0c.1,0,.2,0,.2-.2ZM97.2,31.9c0-.2.1-.4.1-.4.2-.1,0-.2,0-.3,0,0-.1,0,0-.1,0,0,0,0,.1,0,.1,0,.2,0,.2,0,.1,0,.1-.1,0-.2,0,0-.1,0,0-.2,0,0,.1,0,.2,0,.1,0,.2,0,.1-.1h0c-.1,0-.4,0-.3-.1,0-.1,0-.3,0-.4,0,0-.1,0-.2,0s0-.1,0-.2c0,0,0,0,0-.1,0,0-.1,0-.1,0,0,0,0,0-.1.1,0,.1,0,.2.1.3,0,0,.1,0,0,.1,0,.1,0,.3-.2.4-.2.2-.2.4-.4.6,0,0,0,.1,0,.2.1,0,0-.2.2-.2,0,.3-.1.5-.2.7.2,0,.3-.2.3-.2ZM97.4,29s0,0,0-.1c0,0-.1,0-.2,0-.1,0,0,.2,0,.3l.2-.2ZM97.4,29.4s0,0,0,0c-.1,0-.1.1,0,.2,0,0,.1-.1.1-.2ZM97.5,29.1c-.1,0-.2,0-.2.2,0,0,0,0,.1,0,.1,0,.1-.1.1-.3ZM97.7,29.6s-.1,0-.1,0c0,0,0,0,0,0,0,0,.1,0,.1,0ZM97.6,28.9c0,0,.2,0,.2,0,.2.2.3,0,.5,0-.2,0-.1-.2,0-.2,0,0,0-.1,0-.2,0,0,.1,0,.1-.1,0-.3.1-.3.4-.3-.1,0-.1.2-.1.3,0,.1,0,.2-.2.2,0,0,0,0,0,0h0c0,0,0,.1,0,.1,0,0,0,0,.1,0,0,0,0,0,0,0,0,0,0,0,0,0,.2,0,.3-.1.2-.2,0-.1.2-.2.3-.4.2,0,.2-.2.1-.3-.2,0-.2.2-.4.2,0,0,.2,0,.1-.1,0,0,0,0,0-.1-.1,0-.2,0-.2.1h0c-.1.2-.2.5-.5.7-.1.1-.1.2-.2.3,0,.1-.1.3-.3.2-.1,0-.1,0-.2,0,0,0,0,0,0,0h0ZM97.9,28.1c-.2,0-.2.1-.3.3.2,0,.2-.2.3-.3ZM98,29.9c0-.1.2-.1.3-.1.2,0,.2-.2.2-.3,0-.1-.1,0-.1-.1h0c.2,0,.3-.2.4-.3,0,0,0,0,0-.1,0,0-.1,0-.1,0-.1,0-.3.2-.4.4,0,0-.1.3.2.3-.4,0-.5.2-.7.4.1,0,.3,0,.3,0ZM97.9,29.1h0c-.1,0,0,.1,0,.2.1,0,.2-.1.1-.2ZM98.1,28.2c.1,0,.1-.1.1-.2-.1,0-.1.1-.1.2,0,0-.2,0-.1.2.1,0,.2,0,.1-.2ZM98.3,26.1s0,0,.1,0l-.2.3c0,0,0-.1,0-.2ZM98.5,27.2c.1-.2.2-.4.4-.5s0,0,0-.1c0,0-.1,0-.1,0,0,.2-.1.4-.3.6,0,0,0,0,0,0,0,0,0,0,0,0ZM98.7,27.3c0,0,.2,0,.2,0,0,0,0-.1,0-.2l-.2.3c-.1,0-.1.2-.1.3.1,0,.3-.1.1-.3ZM98.7,25.9c0-.2.2-.3.4-.4h0c0-.1,0-.1,0-.1t0,0c-.2.2-.3.4-.5.6,0,0,0,0,0,0s0,0,0,0ZM99.3,27.3c0,0,0-.1-.1,0s-.2,0-.2.2,0,.1.1.1c.1,0,.1-.1.2-.2ZM99.3,24.9s-.1,0-.1,0c-.2,0,0,.1,0,.2,0,0,.1-.1.1-.2ZM99.3,25.8s.1,0,.1,0c-.1,0-.1,0-.1,0,0,0-.1.1-.1.2.1,0,.1-.2.1-.2ZM99.5,24.7c-.1,0-.1,0-.2.1.1,0,.1,0,.2-.1ZM99.6,25.5s0,0,0,0c0,0,0,0,0,0,0,0,0,0,0,0s0,0,0,0ZM99.7,26c0-.1,0-.2.1-.3.1-.1.2-.2.3-.4,0,0-.1,0-.1,0-.2,0-.1.2-.2.3-.2,0-.2.2-.3.4,0,0,0,0,0,0s.1,0,.1,0ZM99.7,28c0,0,0-.1-.1-.1s0,0,0,.1c0,0,0,.1,0,.1s.1,0,.1-.1ZM100,26h0c0,0,0,0,0,0t0,0s0,0,0,0c0,0-.1.1,0,.1.1,0,0-.1.1-.2ZM100.7,25.5s0,0,0,0c.1,0,.1,0,.1-.1,0,0,0,0,0,0,0,0-.2,0-.3,0,0,0-.1,0,0,.2,0,0,.1.2.2,0ZM101,24.9c0,0-.1,0-.1,0,0,0,0,0,0,0,0,0,0,0,0-.1ZM101.2,25.1h-.1s0,0,0,0c0,0,0,0,.1,0,0,0,0,0,0,0ZM101.9,24.9s0-.1-.1-.1c-.1,0-.1,0-.1.1s0,.1.1.1c0,0,0,0,0-.1ZM104.5,29.4c0-.1.2-.1.2-.3-.2,0-.3.1-.3.2s0,0,0,0h0ZM105.4,28.1c0,.1,0,.2-.2.2,0-.1.1-.2.2-.2ZM105.4,28.6c0,0,0,0,.1-.1,0,0,0,0,0,0,0,0,0,.1-.1.1,0,0,0,0-.1,0ZM105.8,28.3c0,0,0,.1-.1.1,0,0,.1,0,.1-.1ZM106.1,28q0,.1-.1.2c0,0,0-.2.1-.2ZM107.2,15s0-.2,0-.3c.2-.7.6-1.3.9-1.8.3-.7.7-1.3,1.1-2l.3-.7c.1-.2.4-.2.6-.2.3,0,.6.2.9.1h0c.1.3.4.1.6.1s.2,0,.4.2c0,.1.2.2.3.3,0,0,.1.1,0,.1-.1.4-.2.7-.6,1-.3.1-.6.4-.8.8-.1.2-.4.3-.5.5-.2.3-.7.5-.9.9s-.5.2-.6.4c-.1,0-.1,0-.2.1,0,0,0,0-.1,0-.5,0-.7.4-.9.8,0,0,0,0,0,0,0,0,0,0-.1,0,0-.2.1-.3.1-.4-.3.1-.5.3-.7.6,0,0,0,.1-.2.1.2-.2.1-.5.4-.7ZM107.4,26.7c0,0,0,0,0,.1,0,0,0-.1,0-.1ZM107.5,26.6c0,0,0,.1-.2.1,0,0,0-.1.2-.1ZM108.8,25.1c0,0,0,.1-.2.2,0-.1,0-.2.2-.2ZM109.3,24.2c0,0,.1-.1.2,0,.1,0,0,0,0,.1-.1.2-.2.4-.4.6,0,0,0,.1-.2.1.2-.2.3-.5.5-.8ZM109.6,23.9c0-.1,0-.2.2-.2,0,.1-.2.1-.1.3,0,0,0,0-.1,0,0,0,0,0,0,0Z"/>
  <path class="cls-1" d="M127.3,11.9c-.2.4-.7.5-.8.9-.3,0-.2.5-.6.5,0,0-.1.2-.2.3,0,.2-.1.3-.4.4-.5.3-.7.9-1.1,1.3-.3.3-.7,1.2-.9,1.5-.2.3-.4.6-.6.9-.2.4-.4.7-.7,1.1,0,0-.1,0-.2,0,0,0,.1.1,0,.2,0,.4-.2.5-.5.5,0,0,0,.1.1.1,0,.1,0,.3-.1.4-.2.3-.4.5-.6.7,0,0,0,.1,0,.2l-.8,1.2s-.1,0,0,0c.1.3,0,.4-.2.6,0,.3-.2.5-.5.7-.3.3-.4.7-.6,1-.2.4-.4.7-.6,1.1,0,.2-.2.3-.1.4,0,0-.1.1-.2.2-.1,0-.2,0-.1.3,0,.2,0,.4-.1.7l-.7,1.6c-.1.3-.2.5-.4.8-.2.3-.2.7-.5,1-.1.3-.1.6-.2.8-.2.4-.3.8-.4,1.2,0,.2,0,.4,0,.7.1.3-.2.6-.6.7-.1,0-.3,0-.4,0h0c-.2.1-.2,0-.3-.1-.1,0-.1-.2-.2-.3-.1-.1-.2-.4-.5-.5-.1,0,0-.3,0-.4,0-.4.2-.7.3-1,.1-.7.4-1.3.6-1.9.4-.7.7-1.5.9-2.2.1-.2.1-.5.3-.8.1-.2.1-.5.3-.7.3-.4.5-.9.7-1.3.4-.7.7-1.5,1.1-2.1.2-.3.4-.5.4-.7.1-.2.2-.4.3-.6-.1.3-.6.3-.8.6-.1.2-.3.4-.4.6-.1,0-.3,0-.3.3s0,0,0,0,0,0,0,0c-.3,0-.5.3-.8.1.2-.1.2-.4.5-.4,0-.4.6-.5.7-.8,0-.1.2-.1.3-.3,0,0,.2,0,.2-.2-.5-.3-1-.2-1.5-.1-.5,0-.8.2-1.3.3-.1,0-.2,0-.2.1-.5.2-1,.3-1.4.7-.3.2-.7.5-1,.6-.2.2-.4.5-.6.6-.4.2-.6.6-.9.8-.1.1-.2.3-.4.4-.3.3-.6.7-.8,1-.4.5-.7,1-1.1,1.6s-.6.9-.9,1.3c-.2.3-.2.6-.4.9l-.3.8c0,.1-.1.3,0,.4,0,0,.1,0,.2,0,.2-.2.4-.4.7-.6.2-.2.4-.4.7-.6,0,0,.1,0,.1,0,0,0,0,.1,0,.1,0,0-.1,0,0,.1,0,0,0,0,.2,0,.4,0,.6-.3.8-.5.1,0,.3-.2.5,0,.2.1.4,0,.6-.2.4-.1.5-.4.8-.7.1,0,.2-.1.2-.1h.1c.1-.1.3-.3.6-.3,0,0,.1,0,0-.1,0-.1,0-.2.1-.3.2-.1.2-.4.5-.4s0,0,0-.1c0,0,0-.1.2,0,.2,0,.2,0,.3-.1.1,0,.3-.1.4-.2.1,0,.2,0,0-.2,0-.1-.1,0-.2,0h0c.1-.2.4,0,.6-.2-.1.2-.1.3-.2.4-.2,0-.2.1-.3.2-.2.3-.5.5-.7.7-.4.4-.8.9-1.3,1.3-.2.2-.5.5-.9.7-.1,0-.4.3-.6.5-.2.2-.5.4-.7.5l-1.4.9c-.3.1-.5.4-.8.6-.1,0-.3.3-.5.4-.4.1-.5.4-.7.6-.2.2-.6.2-.8,0t0,0c-.5,0-.5-.5-.8-.7-.2-.2-.2-.5-.2-.7,0-.2.1-.3.2-.4.1-.2.2-.4.2-.6.2-.5.5-1,.7-1.5.3-.7.7-1.5,1-2.1.2-.5.6-.9.8-1.4.2-.3.6-.6.7-1,0-.1.2-.2.3-.4.2-.3.4-.5.6-.7.3-.3.5-.7.8-1,.6-.6,1.1-1,1.8-1.6.4-.3.7-.6,1.1-.8.2,0,.3-.3.5-.4.5-.3,1.2-.6,1.8-.7s.7-.1,1.1,0c.4,0,.7,0,.9.1.6.1,1,.5,1.6.5.1,0,.2.2.4.2.2,0,.4,0,.5-.2l1-1.6c.3-.4.6-.9.8-1.3.2-.4.9-1.4,1.1-1.8l1.4-2.1c.2-.3.4-.5.6-.7.2-.3.4-.6.5-.8.2-.2.5-.5.7-.8.2-.2.2-.4.5-.4.4,0,.7,0,1,.3,0,0,0,.1,0,.1.5,0,.6.2.8.5,0,.2,0,.5,0,.7ZM106.2,30.3s0,0,0,.1c0,0,.1,0,.1,0,0,0,0-.1,0,0ZM106.9,29.2s0,0-.1,0c0,.2-.1.3-.4.2h0c0,0,0,0,0,0,.1,0,.2,0,.3,0h0c0,0,.1-.2.2-.3,0,0,0,0,0,0ZM107.1,28.8c-.1,0-.1.1-.1.3.1,0,.1-.1.1-.3ZM107.6,28c0,0-.1,0,0,.2,0,0,0-.1,0-.2ZM107.7,26.9q-.1.2-.1.3c.1,0,.2-.1.1-.3ZM108.4,26.7c0,0-.1,0-.1.2,0,0,.1,0,.1-.2ZM111.3,27.3c-.2.2-.3.4-.5.5-.3.1-.4.4-.7.7-.3.1-.5.4-.7.6-.2.2-.5.3-.7.4,0-.2.4-.3.5-.5.5-.4.9-.7,1.3-1.1.2-.2.6-.4.8-.7,0,0,.1-.1.2,0s0,0,0,.2ZM109.3,25.5s-.1,0-.1,0,0,0,0,0c0,0,.1,0,.1,0,0,0,0,0,0,0ZM109.3,24.8s0,0,0,0q.1,0,.1,0h0c0,0,0,0,0,0ZM109.9,24.9c-.2,0-.3.1-.4.3.2,0,.4-.2.4-.3ZM110.5,28.9c-.1,0-.3,0-.5,0,0-.2.4-.2.4-.4,0,0,.1,0,.1,0,0,0,0,.1,0,.2-.2,0-.1.2,0,.3ZM110.9,28.4v-.2c-.1,0-.1,0,0-.1,0,0,.1,0,.1,0,.1,0,.1,0,0,.2,0,0,0,0-.1,0ZM111.6,27.1h-.1c.2-.3.4-.5.6-.7h.1s0,0,0,0c0,0,0,.1-.2.2-.2.1-.3.2-.4.4ZM112.5,26c.1,0,.2,0,.4-.2-.1.3-.4.3-.6.5,0,0,0,0-.1,0,0,0,0,0,0,0,0-.1.2-.2.3-.3ZM113.9,24.8l-.7.8s0,0,0-.1l.6-.6c0,0,.1,0,.2,0ZM113.6,25.7h0c0,0,0,0,.1,0,0,0,0,0,0,0q0,0,0,0ZM113.9,26.1c0-.3.2-.4.2-.5-.2,0-.2,0-.3,0,0,0,0-.1.2-.2h.2c0-.1,0,0,0,0,0,0,0,.1,0,.1,0,0,.1,0,0,0,0-.1.2,0,.2-.1,0,0,.1,0,.1.1,0,0,0,0,0,.1-.2.1-.4.3-.4.4,0,0-.2.1-.3.2ZM114.7,29.4c0,.4-.5.8-.5,1.3.3-.2.6-1.2.5-1.3ZM114.4,24.9c.2-.3.5-.6.9-.7,0-.2-.2-.2-.4-.1.2-.1.4-.3.6-.4,0,0-.1.1-.2.3,0,0,0,0,0,0,0,0,.2,0,.2,0,0,.1-.1,0-.2,0h0c0,0-.1.1-.1.1,0,.1.1.4,0,.3s-.1,0,0,.1c.1.2-.2.4-.3.6,0,0,0,0-.1,0,0,0,0,0,0,0,.1-.1,0-.2-.1-.2-.1,0-.2,0-.2,0ZM114.8,29.3c.1,0,.1,0,.1-.1s0,0-.1,0c-.1,0-.2,0-.2.1,0,0,.1,0,.2,0ZM114.6,24.4c0-.1,0,0,.1-.1,0,0,0,.2-.1.1ZM115,30.9c0,0-.2,0-.2,0,0,0-.1,0,0,0,0,0,0,0,.1,0,0,0,.2,0,.2,0ZM115.1,30.2c-.2-.2-.4-.2-.4.2,0-.2.3-.1.4-.2ZM114.9,31.4c0,0-.1,0-.2,0,0,0,.1,0,.2,0ZM115,28.8c0,0,.1-.2.2-.3-.2,0-.2.2-.2.3ZM115.1,28.3c0,0,0,0,.1,0s0,0,0,0c.1-.3.3-.5.4-.7.1-.6.4-1,.7-1.5,0-.4.3-.7.5-1.1,0,0,0,0,0-.1,0,0,0,0-.1,0-.1.3-.4.5-.4.9s0,0,0,0c-.1.1-.4.4-.3.7,0,0,0,.1-.2.3,0,0-.1,0-.1.2,0,.1,0,.3-.2.5,0,0-.1,0-.1,0,.1.2-.2.3-.2.5,0,0,0,.1,0,.2-.1,0-.1,0,0,.1ZM115.3,29.9s0,0,0,0,0,0,0,0,0,0,0,0,0,0,0,0ZM115.4,29.2c0,0,0-.1-.1,0h0c0,.1.1,0,.1,0ZM115.7,29.8s0,0,0,.2,0,0,0,0c.1,0,0-.2,0-.2ZM115.7,23.6s0,0,.1,0c0,0,0,0,0,0,0,0,0,0,0,0,0,0,0,0,0,0ZM115.7,23.3v-.3c.2.1,0,.2.2.4-.1,0-.2,0-.2-.1ZM115.7,24c.1,0,.1-.2.4-.2,0,.1-.1.3-.4.2ZM116.1,28.7c0,0-.1,0-.1,0-.1.2-.1.4-.2.5,0,0,0,.1.1.1s.1,0,.1,0c0-.2.1-.3.1-.5,0,0,0-.1-.1-.1ZM116.1,28.1c.1,0,0,0,.1-.1,0,0,0,0-.2,0,0,0,0,.1,0,.1,0,0,.1,0,.1,0ZM116.2,27c0,0,.2,0,.1-.2-.1,0-.2,0-.3.1,0,0,0,.1,0,.2.1,0,.1,0,.1-.1ZM117.1,26.8s0,0-.1,0c0,0-.1,0-.1.1.1.2-.1.3-.2.4,0,0-.2-.1-.3,0-.2,0-.3.3-.2.3.2,0,.2-.1.2-.1h0c.1,0,.1.2.3.2,0,0,.2-.1.1-.2,0-.2.1-.3.1-.5,0,0,.1,0,0-.1ZM116.3,23.5c0,0,0,.1-.1.1,0,0,0-.1.1-.1ZM116.4,26.6s0,0,0,0c0,0,0,0,0,0-.1,0,0,0,0,0h0ZM116.6,28s0,0,0,0c-.1,0-.1,0-.2.1,0,0,0,0,.1,0,0,0,.1-.1.1-.2ZM116.6,26.9h0c0,0,0,.1,0,.1h0c0,0,0-.1,0-.1ZM117.1,24.5c0-.2.1-.4.2-.6.4-.6.8-1.2,1.1-1.9,0-.1.2-.3.2-.5-.1,0-.2,0-.2.2,0,.2-.2.4-.3.7-.1.2-.3.4-.5.6-.1.1-.1.3-.2.5-.1.2-.2.5-.4.7-.1.1-.2.3-.2.5.2,0,.5,0,.4-.1ZM117.1,26.1c0,0,0,0,0,0-.1,0-.1.1-.1.3.1,0,.2-.1.2-.2ZM117.1,25c-.1,0-.2.1-.2.3.1-.1.1-.2.2-.3ZM117.4,22.2c0,.2-.1.2-.3.3,0-.1.1-.3.3-.3ZM117.3,24.8s0,0,0,0c0,0,0,0,0,0h0c.1,0,0,0,0,0ZM117.3,26.2c-.1,0-.1.1,0,.2,0,0,.1,0,.1,0,0,0,0-.1,0-.2ZM119.7,22.3c0,0-.1,0-.2,0s-.1,0-.1,0c-.2.4-.5.6-.6.9s0,.3-.2.4c0,0,0-.1-.1-.2-.2.2-.3.4-.4.6,0,0,0,0,0,0,.2,0,.1.3.1.4h0c0,.1,0,.3,0,.3s-.1.1-.2.2c0,.2-.1.3-.4.3-.1,0-.3,0-.2.2.2.1.2.3.1.5.1-.2.4-.2.3-.3,0-.2.1-.3.2-.5,0-.1.3-.2.1-.4,0,0,0,0,0,0,.2-.2.3-.3.2-.6,0,0,0-.1,0-.2.2,0,.4,0,.4-.2,0-.1,0-.2.1-.3.1,0,.2-.2.2-.4,0-.3.2-.5.4-.7,0,0,.1,0,.1,0ZM117.4,22.2c0,0,0-.1.2-.1,0,0-.1.1-.2.1ZM117.8,23.7c-.2,0-.2.3-.3.5h-.1c0,.2,0,.3,0,.3,0,0,0,0,0,0,0,0,0-.1,0-.2,0,0,0-.1,0-.2.2,0,.4-.4.3-.5ZM117.6,24.8v.2c-.2,0-.2,0-.2.1h0c.1,0,.1,0,.1,0,0,0,.1,0,0-.2ZM117.9,24.6c0-.2,0-.2-.1-.1,0,0,0,.1.1.1ZM118.2,23.2s0,0,0,0h.1s0,0-.1,0ZM118.7,23s.1,0,.1,0c0,0,0-.1,0-.1,0,0,0,0,0,0s0,0,0,.1h0ZM118.9,22.5c.2,0,.4-.3.4-.5-.1.2-.2.4-.4.5ZM119.4,20.2c.1,0,.2-.1.2-.3-.1,0-.2.1-.2.3ZM119.9,20.4s0,0,0-.1h0c0,0,0,.2,0,.2,0,0,0,0,0,0ZM120.2,19.1c0,0,0,0,0,0,0,0-.1,0-.1,0-.2.1-.2.3-.3.5l.4-.4ZM120.2,20.5c0-.1.2-.2,0-.3s-.2,0-.2,0c0,0,.2,0,.2,0,0,0-.1.2-.1.3,0,0,0,.1,0,.1.1,0,.2,0,.1-.1ZM120.6,20.4c-.2,0,0,.2-.2.3-.1,0-.1,0-.1,0h.1c0,0,.1,0,.1,0,0,0,0-.2,0-.4ZM120.3,18.7s0,0,.1,0c0,0,.1-.2,0-.3,0,.1-.2.2-.2.3ZM120.8,18s0,0-.1,0c0,0-.1.2-.2.3,0,0,0,0,0,0,0,0,.2-.3.2-.3ZM121.2,19.5c0,0-.2,0-.2,0,0,.2-.2.4-.3.7.2-.2.3-.4.6-.5,0,0,0-.2,0-.3ZM120.8,19.3c.1,0,.1,0,.1,0,0-.1.1-.3.2-.4h0c-.2.1-.2.2-.3.4,0,0,0,0,0,.1ZM120.9,17.8s0,0,.1,0c0-.1,0-.2.1-.3-.2,0-.2.1-.3.2,0,0,0,0,0,.1ZM121.6,18.9c0,0-.2.1-.3.2,0,0-.1,0,0,.1,0,0,.2,0,.2,0,.1,0,.2-.1.2-.2,0,0,0-.1,0-.1Z"/>
  <path class="cls-1" d="M142,9.9c0,.2,0,.4-.3.5-.2,0-.4,0-.5-.2-.1-.3-.5-.4-.7-.3,0,0,0,0-.1,0h.1c.6,0-1.2.4-1.8.6-.3,0-.6.3-.8.4-.2.2-.5.3-.7.4-.2.1-.5.3-.6.5-.1.1-.3.2-.4.3-.5.3-.9.6-1.3,1-.1.1-.3.1-.4.3-.3.4-.6.7-.9,1-.2.2-.5.3-.5.6h0c-.1.2-.2.3-.2.4s0,0,0,0c-.5.4-.8.9-1.3,1.4-.2.2-.4.5-.5.8h0c-.3,0-.2.3-.4.5,0,0,0,0,0,0-.1.3-.3.6-.6.9-.2.1-.2.4-.3.7-.1.2-.3.4-.5.4,0,0,0,0,0,.1-.1.4-.3.7-.5,1-.1.2-.2.3-.2.5-.1.4-.4.8-.7,1.2-.1.1-.1.3-.2.4,0,.1-.2.3-.3.5,0,0-.1.2-.3.2.1.2-.1.3-.2.5,0,.2-.3.4-.3.7,0,.2-.2.3-.3.5-.1.3-.3.5-.4.8,0,.1-.1.3-.2.4-.2,0-.2.3-.2.4-.1.3-.2.6-.4,1l-1.3,2.4c-.5.7-.7,1-.8,1.4,0,0,0,.1,0,.2.4-.1.7-.3,1.1-.5.4-.2,1.7-.6,3.4-1.4l1.2-.7c.2,0,.4-.1.6-.3.1-.2.5-.3.6-.5.1-.1.3-.2.6-.3.1,0,.2-.1.3-.2.1-.2.2-.3.3-.3.2,0,.3-.2.4-.3.5-.2.7-.4,1.1-.8.4-.2.7-.5,1-.8.6-.6.9-.9,1.1-1.2,0-.2.2-.3.4-.4.3-.2.4-.4.5-.6.2-.2.3-.4.6-.3.2,0-.5.4-.3.5,0,0,0,.2,0,.2-.2.2-.3.4-.5.5-.2.3-.4.5-.9,1.1-.1.2-.3.2-.3.3-.3.2-.5.5-.6.8-.4.2-2.2,1.6-1.8,1.3-.1,0-.2,0-.3,0-.4.4-.9.7-1.4,1.1-.5.4-.9.7-1.5,1.1-.4.2-.7.4-1.1.7l-2.4,1.5c-.5.4-.7.6-1.6.9-.3,0-.5.2-.7.3-.2,0-.4,0-.6,0,0,0,0,0,0,0,0,0-.1,0-.2,0-.2,0-.5,0-.6,0-.1-.2-.5-.3-.6-.6,0-.1-.1-.4-.4-.4,0,0,0-.1,0-.2.1-.2.2-.4.3-.6.1-.3.3-.6.6-1.2.1-.2.2-.3.2-.4.2-.3.3-.6.4-.9.1-.3.4-.6.5-1,.2-.2.3-.4.5-.7.1-.1,0-.3.2-.4,0,0,.1-.3.2-.3,0,0,0,0,0,0,0-.2.1-.3.2-.4.1,0,.3-.2.2-.4,0-.1.1-.1.2-.2,0-.1.1-.1,0-.2,0,0,0-.1,0-.1.3-.4.5-.9.7-1.3.1-.2.2-.3.4-.4.1,0,.1-.1,0-.2,0-.2,0-.3.2-.4,0,0,0-.1,0-.1.2-.4.4-.7.7-1,0-.2.1-.4.3-.7.1-.3.4-.7.7-1,0,0,.1-.2.1-.4.1-.2.2-.4.4-.6,0-.3.2-.4.4-1,0,0,.1-.2.3-.1,0,0,0,0,0-.1,0-.3.3-.5.5-.8,0,0,0-.2.1-.4.2-.1.4-.4.5-.6.3-.4.6-.8.9-1.2l.6-.9c.2-.2.5-.5.6-.7.2-.2.4-.4.5-.7.1-.2.2-.4.4-.5.2,0,.2-.2.4-.3.2-.2.2-.3.5-.3.2,0,.2-.2.4-.4.1-.4.5-.5.9-.8.2-.3.8-.4,1.1-.8.3-.4.8-.7,1.3-.8.2,0,.6-.1.7-.3.1-.1.2,0,.4-.1.3,0,.6-.1.9-.2.6,0,1.1.3,1.7.5l1.2.5c.3,0,.4.4.4.5ZM123.8,26.6c0,.1-.1.1,0,.2,0,0,.1-.1,0-.2ZM124.8,26.7c0,0-.1,0-.1,0-.1,0,0,.1,0,.1-.1,0-.2,0-.2.1,0,.2-.2.5-.2.7,0,0-.1.2,0,.2,0,0,.1,0,.2-.1.2-.3.1-.6.3-.9,0,0,.1-.1,0-.2ZM124.6,25.4c.1,0,.1-.2,0-.3,0,.1-.1.2,0,.3ZM124.6,25.8c0,0-.1,0,0,.2,0,0,0-.1,0-.2ZM124.7,26.2c0,0-.1.2-.1.2.1,0,.2,0,.1-.2ZM125.1,24.4c0,0,0,0-.1,0,0,0,0,0,0,0,0,0,0,0-.1,0,.1.2.2,0,.2,0s.1,0,0-.1ZM125.1,24.9c-.1,0-.1.1-.1.2,0,0,.1-.1.1-.2ZM125.3,25.2q-.2.1-.2.3c0-.1.1-.1.2-.3ZM125.3,23.8c.2,0,.2-.1.3-.2,0,0,.1-.1,0-.2,0,0-.2,0-.2,0-.1.1,0,.3-.1.4ZM125.4,24.4c0,0-.1,0-.1.1,0,0,0,0,0,0,0,0,0-.1,0-.2ZM125.5,24.2s0-.1,0-.2c0,.1-.2.2-.1.2,0,0,0,0,.1,0ZM125.6,24.7s0,0,.1-.1c0,0,0,0,0,0,0,0-.1,0-.1.1,0,0,0,0,0,0ZM125.8,25.1c-.1,0-.1,0-.1,0,0,0-.1.2,0,.3,0-.1,0-.2.2-.3,0,0,0,0,0,0ZM125.7,23.1q0,0,0,0s0,0,0,0c.1,0,.1-.1.2-.3,0,0,0,0-.1,0,0,0-.1,0-.1,0,0,.1,0,.2,0,.3ZM125.7,23.8c.1,0,.1-.1.2-.2-.1,0-.1.1-.2.2ZM126.1,24.8c0,0-.1,0-.1,0-.1,0-.1.1-.2.2,0,0,0,0,.1,0,0,0,.2-.1.2-.2ZM126.4,23.9h-.1c0,.2,0,.3-.2.3-.1,0,0-.2,0-.3s0,0,0,0c0,0,0,0-.1,0,0,0,0,.1-.1.2,0,0,0,.1,0,.1.1,0,.2,0,.3,0,.1,0,.2,0,.2,0,0-.1.1-.2,0-.4ZM127.2,20.8c.2-.2.2-.4.2-.6,0,0-.1,0-.1.1-.2.2-.2.5-.4.7,0,0-.2.1-.2.2,0,.2-.1.3-.4.1.2.2.1.3.1.5,0,0-.1.1-.2.2-.1.1-.3.2-.4.4,0,0,0,.1.1.2.1,0,.1,0,.1,0,0-.2.2-.4.2-.5,0-.2.2-.2.3-.4.2-.4.4-.7.6-1ZM126.7,23.4c-.1,0-.1.2-.2.3.2,0,.2-.1.2-.3ZM127.6,21.2s0,0-.1.1c-.2.3-.2.7-.5.9,0,0,0,0,0,0,0,0,0,0,0,0,0,0,0,0,0-.1.1-.1.1-.3.2-.4.2-.1.3-.3.2-.5ZM127.2,21.3c-.1,0-.2.2-.2.4.1-.1.2-.2.2-.4ZM127.3,22.4c-.1,0,0,.2-.2.4,0,0,0,0,0,0h0c.2-.1.1-.3.2-.4ZM127.4,20.9h0c0,0-.2,0,0,.1,0,0,.2,0,.1-.1ZM127.8,19.5c-.1,0-.3.1-.3.3,0,0,0,.1,0,.1,0,0,0,0,.2,0,.1-.1.1-.3.1-.4ZM127.7,21.8c0,0,0-.1-.1,0,0,0,0,0,0,.1,0,0,0,0,0,0,0,0,0,0,0,0ZM128.3,21.4c0,0-.2,0-.2,0-.2-.1-.3,0-.3.1,0,0,0,0,.1,0,.1,0,.2.1.2,0,0,0,.2,0,.2-.2ZM127.9,20.5s0,0-.1.1c0,0,.1,0,.1,0s.1,0,.1-.1,0,0-.1,0ZM127.9,20c.1,0,.1-.1.1-.3-.1.1-.1.2-.1.3ZM128.4,20.3c0,0-.1,0-.1,0,0,.1,0,.3-.1.4-.1.1-.1.3-.2.4h0c.4-.2.3-.5.4-.9,0,0,0,0,0,0ZM128.1,20.3c.1,0,.1-.1.1-.3-.2,0-.2.1-.1.3ZM128.3,19.1h0v-.2s0,0,0,.2ZM128.5,18.3v-.2c.1,0,0,0,0,0,0,0,0,.1,0,.2ZM128.9,19.7s0,0-.1,0c-.1.1-.3.2-.2.4,0,0,0,0,0,0,0,0,.1,0,.1,0,0-.1.1-.2.1-.4,0,0,.1,0,.1,0ZM128.7,17.8c0,0,0,0,.1,0,0,0,0,0,0,0,0,0,0,0,0,0s0,0,0,0ZM128.9,19s.1,0,0-.1c0,0,0,0-.1,0,0,0,0,.1,0,.2ZM128.8,19.1s0,0,.1,0,0,0,0,0,0,0,0,0c0,0,0,0-.1,0ZM128.9,18.3s0,0,0,0h.1c0-.1,0-.1,0-.1,0,0,0,0,0,0ZM129,18.3h0c0,0-.1,0-.1,0h0c0,0,0,0,0,0ZM129.2,19c0,0-.1,0-.1.1,0,0-.1.1-.1.2t0,0s0,0,0,0c.1,0,.2,0,.2-.2,0,0,0-.1,0-.2ZM129.1,19.5s0,0,0,0,0,0,0,0c0,0,0,.1,0,.1,0,0,0,0,0,0ZM129.3,17.1c-.1,0-.2,0-.2.1,0,0,0,0,0,0,.1,0,.1-.1.1-.2ZM129.3,18.7c0,0,0,0-.1,0,0,0,0,0,0,0,0,0,0,0,.1,0ZM130.1,18.8c-.1.1-.2.2-.4.1h0c.1.1-.1.2-.1.3.1,0,0,.2,0,.3,0,0,0,0,0-.1h0c0,0-.1,0-.1,0h0c0,0,0,0,0,0h0c0,0,0,0,0,0,0,0,0,0,.1,0l.5-.7ZM129.4,18.8s0,0,0,0v-.2c0,0-.1,0,0,.2ZM129.5,18.1h0s0,0,0,0c0,0,0,0,0,0h0c0,0,.2-.1.1-.2,0,0,0,0-.1,0,0,0-.1.1,0,.2ZM129.5,17.4s0,0,0,0c0,0,.1,0,.1-.2,0,0-.1,0-.1.2ZM129.7,17.5q0,0,0,0s0,0,0,0c0,0,0,0,0,0h0ZM129.8,18.2c-.1,0-.1,0-.1,0h0c0,0,.1,0,.1,0s0,0,0,0ZM130,18h-.1,0s0,0,0,0c0,0,0,0,0,0h0s0,0,0,0c0,0,.1,0,0-.1h0c0,0-.1,0,0,0ZM130.5,18.2c0,0,0,0,0-.1s0-.1,0-.1,0,.1-.1.3ZM130.7,16.9c0,0,0,.1-.1.1.1,0,.2,0,.1-.1ZM130.9,15.7s0,0,0,0c0,0,0,0,0,0s0,0,0,0h0Z"/>
  <path class="cls-1" d="M147.2,24.8c-.5.6-1.3,1-2,1.3-.5.3-1.1.6-1.8.6,0,0-.5.2-.9.1-.2,0-.4,0-.5.3-.4.7-.8,1.3-1.3,1.8-.5.6-.9,1.2-1.3,1.8,0,.2-.2.3-.4.4-.5.5-1.1,1-1.5,1.4-.5.5-1,1-1.7,1.2-.3,0-.5.3-.8.5-.3.1-.6.2-1,.1-.4,0-.6,0-.9,0-1.5-.3-2.1-1.3-2.6-2.4-.2-.5-.1-1.1,0-1.6,0-.6.2-1.4.5-1.9.3-.7.4-1.3.7-2,.2-.5.6-1,.7-1.5.1-.4.5-.6.7-.9.7-1,1.4-1.8,2.3-2.6.5-.6,1.1-1.1,1.8-1.6s1.9-.9,3-.9.7-.2.9.1c0,0,0,0,.1,0,.5,0,.7,0,.8.4s.1.1.1.1c.2.2.2.4-.1.6-.2,0-.4.2-.5.3-.3.2-.5,0-.5-.1s-.2-.1-.4-.2c-.1,0-.3,0-.4.1-.1.2-.3.3-.5.3-.2.1-.4.2-.5.4-.1.3-.9.4-1.1.7-.5.7-1.1,1.4-1.7,2.1-.1.1-.2.3-.4.5l-.5.6s0,0,0,0c-.4.4-.7.9-1,1.4l-1.4,2.4c-.4.6-.5,1.4-.7,2.1,0,.3.3.5.1.8-.2.4-.1.9,0,1.3.1.3.4.2.6.1.9-.3,1.8-.6,2.6-1.1,1.4-1,2.6-2.2,3.7-3.5.5-.6.9-1.2,1.4-1.8.2-.2.1-.4,0-.6-.1-.7-.1-1.4.2-2.1.2-.7.5-1.4.9-2,0,0,0-.1,0-.2,0-.7.6-1.2,1.1-1.8.4-.4.9-.7,1.5-1,.4-.1.7,0,1.1,0,.2.1,0,.2,0,.4,0,.4-.4.7-.6,1.2,0,.1-.1.2,0,.4.1.1,0,.4-.2.4,0,0-.1,0-.2,0-.1,0-.4,0-.4,0,0,.2.3,0,.4,0,.1,0,.2,0,.2.1-.2.1,0,.5-.5.6-.1.3-.6,1.1-1.1,1.3,0,0,0,.1,0,.2-.2.5,0,.7-.2,1.2,0,.1-.2.2,0,.3,0,.1.2.1.3,0,.8-.2,1.2-.4,1.9-.8,1-.6,2-1.3,2.9-2,.4-.2.6-.5.9-.7h.7c1.3-.7-.6,1.7-2.5,2.7ZM138.4,15.9c.2-.4.2-.5.6-1,.5-1.9,1.9-1.1,2-.8,0,0,0,0,.1.1.5.1.7.4.3,1-.2.3-.5.5-.9.7-.2.1,0,0-.2.1-.6,1.1-2,.6-2-.2ZM139.6,19.8s0,0,.1,0h0c0,0,0,0,0,0s0,0,0,0ZM143.2,23.3c0,0,.1,0,.1,0,.1,0,.3-.2.2-.3,0,0-.5.2-.4.2ZM143.4,23.8c0,0,.1,0,.1,0,0,0,0,.1-.1.1-.1,0-.2,0-.1-.1,0,0,.1,0,.1,0ZM143.4,15.9c.2-.4.2-.5.6-1,.5-1.9,1.9-1.1,2-.8,0,0,0,0,.1.1.5.1.7.4.3,1-.2.3-.5.5-.9.7-.2.1,0,0-.2.1-.6,1.1-2,.6-2-.2ZM143.8,22.7q0,0,0,0s0,0,0,0h0s0,0,0,0Z"/>
  <path class="cls-1" d="M147.7,34.6c-.3,0-.6,0-.9,0s-.3,0-.4-.2c0,0,0,0-.1,0-.2,0-.4,0-.5,0-.5,0-.9-.2-1.3-.4-.5-.2-1-.4-1.5-.6-.2-.1-.5-.3-.7-.4-.1-.1-.2-.1-.4,0-.2.2-.4.4-.6.5-.4.2-.7.5-.9.8-.2.2-.6.3-.8.4-.1,0-.2,0-.3,0-.4,0-.4-.4-.5-.6,0,0,0-.1,0-.2.6-.5,1.3-1,1.8-1.5.2-.2.1-.3-.2-.4-.2,0-.3-.1-.3-.3,0-.1.1-.2.2-.2.2-.1.5-.2.7-.3.2,0,.2-.1.3-.2,0,0,.1-.1.2,0,0,0,0,0,.1,0,.4,0,.6-.2.8-.4.5-.4,1-.8,1.5-1.2.2-.2.4-.4.7-.6l1-.9.5-.5c.2-.2.4-.5.8-.6,0,0,0,0,0,0,0-.2.3-.3.4-.4.4-.6,1.1-.9,1.5-1.5.2-.3.6-.5.8-.9,0,0,.2-.2.2-.2.2-.1.3-.4.3-.6,0-.7.3-1.4.8-2.1.2-.4.2-.4.5-.7.5-.5.6-.7,1.2-1.2.3-.2.6-.4.9-.6.1,0,.2,0,.3,0,.4.1.7,0,1.1.1s.6.2.9.4c.1,0,.1.2.1.3s.2.2,0,.3c0,0,0,0,0,.1,0,.2,0,.3-.2.4-.2,0-.3.2-.4.3.5-.4-.6.4-1.1.7-.4.2-.6.5-.9.7-.1,0-.2.2-.4.4-.1.1-.2.3-.4.4-.1,0-.2.3-.2.4,0,.1-.1.3-.2.4-.1.1-.2.3-.2.5,0,.1,0,.3-.1.5-.1.1,0,.2,0,.3.1.4.2.8.1,1.2,0,0,0,0,0,.1,0,.2.1.4.1.6,0,.3.4.4.6.2.6-.4,1.9-1,2.5-1.3.7-.4,2.4-1.6,3-2,.4-.2.7-.5,1.1-.8s.1-.1.2-.1c0,.4-.4.5-.7.8,0,0-.1,0,0,.1s.1,0,.2,0c.1,0,.2-.2.4-.2-.2.2-.4.4-.6.6-.1,0-.2.1-.2.2-.1.1-.2,0-.4,0s-1.5,1-1.5,1.1c0,0,0,0,0,0,.3.1,0,.2,0,.3-.5.3-1,.6-1.5.9-.6.3-1.9.9-2.4,1.2-.3.2-.4.3-.2.6,0,.2.1.4.2.5.1.4.3.7.3,1.1s.1.7-.1,1c.1.3-.1.5,0,.8h0c-.2.4-.2.7-.3.9,0,0,0,.3-.2.3,0,.1,0,.2,0,.3-.3.3-.4.6-.8.7-.1,0-.2.1-.3.2-.2.1-.5.2-.8.3-.4.1-.9.2-1.3.2-.4,0-.8,0-1.2,0ZM146.2,33.2c.3,0,.6-.1.9,0,.1,0,.3,0,.5,0,.4,0,.8,0,1.2-.2.6-.1,1.2-.4,1.5-.9.3-.3.4-.7.5-1.1,0-.1.3-.3.2-.4-.2,0-.1,0-.1-.2,0-.1.2-.2.2-.3v-.6c0-.3,0-.5,0-.8,0-.2-.2-.3-.5-.2-.5.2-.9.5-1.4.7-.4.1-.8.2-1.1.5-.2.1-.5.1-.7.2-.3.2-.6.3-.9.4-.7.3-1.4.4-2,.7-.5.2-1.1.3-1.5.7-.1.1-.3.2-.4.4,0,0,.2.2,0,.4h0c.2.1.4.4.7.4.8.2,1.5.4,2.4.4s.4,0,.5,0ZM143.9,30.3s0,0,0,0c.2-.3.6-.5.8-.9.3,0,.2-.5.7-.4h.1c.1-.4.7-.5.9-.9,0,0,0,0,.1,0,.2-.1.4-.2.5-.4,0,0,0-.2.2-.2.4-.1.5-.5.8-.6,0,0,0-.2.2,0,.1,0,.1.1,0,.2-.1.1-.3.3-.4.4s0,.2-.1.3c-.3.2-.5.6-.9.7,0,0-.1.1-.2.2,0,.1-.1.2-.2.3-.4.3-.7.6-1,1,.1,0,.2,0,.4,0,.7-.2,1.4-.5,2.1-.8.6-.3,1.3-.5,1.9-.8.3-.1.6-.3.9-.4,0,0,.1-.1.1-.2-.1-.4-.1-.7-.2-1.1-.1-.5-.2-1-.2-1.4,0,0,0-.2-.1-.2-.2,0-.1-.2,0-.2.2-.1.2-.3.1-.5,0,0,0-.2,0-.2,0,0-.1,0-.2.1-.5.4-.8,1-1.3,1.3-.5.4-.9.8-1.3,1.2-.1.1-.2.3-.4.4-.3.3-.6.6-.9.8-.1.1-.3.2-.4.4s-.2.3-.4.4-.3.2-.5.4c-.2.1-.2.4-.5.5-.1,0-.3.1,0,.3.1,0,0,.1,0,.2s0,0-.1,0c-.1,0,0,0,0-.1,0,0,0-.1,0-.1,0,0,0,0-.1,0,0,0,0,.2-.2.2-.4,0-.5.3-.7.5,0,0,0,.1.1.1.2,0,.5-.2.7-.2ZM145.1,33.7c.2,0,.4.1.5,0-.2,0-.3-.2-.5,0ZM147.2,27c0,.1-.1.3-.3.4,0-.2.1-.3.3-.4ZM148.4,26.5s0,0,.1,0,0,0,0,0h0c0,0-.1,0-.1,0ZM148.5,26.3s0-.1,0-.2c0,0,0-.1.1-.1h.4c.1,0-.1.2-.2.4,0,0-.1-.1-.2,0ZM149,25.9h0c0-.2,0-.3.2-.2,0,0,0,0,0,.1,0,0-.1.2-.2.1t0,0ZM149.6,25.3c0,.3,0,.3-.3.2.2,0,.1-.2.3-.2ZM149.4,33.4s0,0,0,0,0,0,0,0c0,0,0,0,0,0s0,0,0,0ZM150.1,33.1s0,0-.1,0c0,0-.1,0-.1,0s0,0,.1,0c0,0,.1,0,.1-.1ZM150.7,33h0c0-.1-.1,0-.2,0h-.2c0,0,.1,0,.1,0,.1,0,.2,0,.3,0ZM151,30.9c0,0-.1,0-.1,0,0,0,0,.1.1,0,0,0,0,0,0-.1ZM151.1,32.2s0,0-.1,0,0,0,0,0,0,0,0,0c0,0,0,0,0,0ZM155.1,26s0,0,0,0h-.1c0,0-.1,0-.2,0,0,0-.8.4-.9.5,0,0-.1,0-.1,0,0,0,.1,0,.2,0,.8-.4.9-.4,1.1-.5ZM156.5,25.2c-.4,0-.5,0-.6.3.2,0,.4-.2.6-.3ZM156.9,25c0,0,1.1-1,1.2-1s.1,0,0,0c0,0,0,0-1.2,1,0,0,0,0,0,0ZM158.4,23.7s0,0,0,0c-.1,0-.1,0-.1.1,0,0,0,0,0,0,.1,0,.1,0,.1-.1ZM160.2,22c.2-.2.2-.3.2-.5h.4c0,0,0,.2-.1.4-.1.2-.4.3-.5.5,0,.2-.2,0-.3,0,0-.2.2-.3.4-.4Z"/>
  <path class="cls-1" d="M170.7,21.3c-.1.2-.4.3-.5.5-.2.3-.5.7-.8,1-.5.4-.8.9-1.1,1.3-.1.1-.2.3-.4.3q0,0-.1.1c0,.4-.4.7-.6,1-.1.2-.4.5-.4.7,0,0-.1.2-.4.1.2.1,0,.2,0,.4,0,.1-.2.3-.4.4-.1.2-.1.4-.3.6-.2.2-.2.4-.4.6,0,0,0,.1,0,0-.1,0,0,0,0,0,0-.1-.1-.1-.1,0-.1,0-.4,0-.4.3,0,.1,0,.3-.4.2,0,0,0,0-.1.1,0,0,0,0,0,0,0,0,.2-.1.2,0,0,.1,0,.1-.1.2-.1.2,0,.4,0,.4,0-.2,0-.3.2-.4.1,0,.3-.2.4-.4.1.1,0,.1,0,.2-.2.3-.2.5-.5.8-.2.1-.1.4-.3.7,0,.1-.2.2-.2.4,0,0,0,.1-.1.2,0,0,0,0,.1.1,0,0,0,0,0,0l3.2-2.5c.3-.2.6-.5.9-.7.3-.3.6-.5.9-.7.2-.2.5-.4.8-.6-.1.1-.2.3-.4.4-.1,0-.1,0-.1.2,0,0,0,.1,0,.2,0,0,0,0,0,0,0,0,.1,0,.2,0,0-.1.4-.5.6-.5,0,0,0,.2-.2.2-.1,0-.1.1-.2.2,0,.1-.2.2-.4.4l-.2.3c0,0-.1.1-.2.2-.2,0-.3.3-.5.5-.1,0-.2.1-.4.2l-1.2,1c-.1.2-1.3,1.3-1.5,1.5-.1.2-.1.4-.4.4-.2,0-.4.2-.6.3,0,0,0,0,0,.2s0,.2-.2,0c-.1,0-.2,0-.2.2,0,.2-.1.2-.2.3-.2,0-.2.2-.4.4-.2.1-.3.2-.5.3-.2,0-.2.3-.2.4s0,.2-.2.3c0,.1,0,.4-.2.4-.1,0-.1,0-.2,0-.2,0-.4-.1-.5-.2-.2-.1-.4-.2-.5-.4,0,0,0,0-.1,0,0,0-.1,0,0-.2.1,0,.1-.2,0-.3,0,0,0,0,0,0,0-.2,0-.4.2-.6.1,0,.1,0,.1-.1,0-.3.2-.6.4-.9.3-.5.5-1.1.7-1.5.5-1.1,1.2-2.1,1.8-3.1.2-.5.6-.9.9-1.4.1-.3.4-.5.6-.8,0-.2,0-.3.2-.4h0q0-.1-.1,0c-.2.2-.4.3-.6.5-.1,0-.2.2-.4.3-.1,0-.2.1-.2.3-.1.1-.2.4-.4.3,0,0,0,0,0,0s-.1,0-.2,0-.2,0-.2.1c-.4.3-.8.7-1.1,1.1,0,0-.1,0-.2,0s-.1,0-.1.2-.1.4-.4.5c0-.2.1-.3.2-.4,0,0,0,0,0-.1,0,0-.1,0-.1,0-.1,0-.1,0-.1.1,0,0,0,0-.1,0-.3.2-.4.5-.7.6-.1,0-.2.1-.1.2.1,0,.1,0,.2-.1.2-.2.3-.2.4-.2,0,0-.1.1-.2.1-.1,0,0,0,0,0,0,0,.2,0,.2,0,0,0,0,0,0,0h0c.1,0,.2,0,.2-.1h.2c.1,0,.2.1.2,0s0-.1,0-.1q0,0,0,.1s0,.1-.2.1-.3,0-.3.2c0,.2-.2.4-.4.5-.2.2-.5.4-.7.6-.2.3-.4.5-.6.7-.1.1-.3.2-.4.3-.5.4-.7.6-.8.8-.3.3-.8.8-1.1.9h-.2c-.2.2-.4.4-.5.5-.2.2-.4.2-.6.2-.2,0-.4,0-.4.1-.1,0-.2,0-.3,0-.2,0-.5-.2-.6-.4-.1-.3-.2-.6-.5-.7-.2,0,0-.4-.1-.5,0-.3.1-.6.1-.8.1-.3.2-.5.2-.8,0-.3.2-.6.3-.9.1-.4.5-.9.6-1.2.3-.7.8-1.4,1.1-1.9.2-.5.5-.9.8-1.3.2-.3.4-.6.7-.9.2-.4.5-.7.8-1.1.1-.3.5-.4.6-.7.4-.4.8-.8,1.2-1.1l1.2-1c.9-.8,2.2-1.1,2.9-1.1.2,0,.4-.1.6,0,0,0,.1,0,.1,0,.6,0,1,.2,1.4.4.2.1.2,0,.3-.1.2.1.5.1.7.3.2.1.2.2.5.3,0,0,0,0,.1,0,.2-.2.4-.2.5,0,0,0,.1,0,.2,0,.1,0,.2,0,.3,0,.2.3.6.4.9.5,0,0,.1,0,.1,0,0,.3,0,.7-.1.9ZM155.2,30.2s0,0,0,0,0,0,0,0c0,0,0,.1,0,.1s0,0,0-.1ZM155.4,29.6c-.1,0-.1.2-.1.3,0,0,.1-.2.1-.3ZM155.8,30.5c0,0,0,0,0,0-.1,0-.1,0-.2.1,0,0,0,0,0,0,0,0,0,0,0,0h0c.2,0,.1-.1.3-.2ZM167.8,20.7s0,0-.1,0c-.2-.1-.4-.2-.6-.1,0,0-.1,0-.2,0-.1-.1-.2-.1-.4-.1-.4,0-.8,0-1.2.1-.3,0-.7.3-1.1.4-.3.1-.6.4-.9.5-.4.1-.6.4-.8.6,0,0,0,0,0,0-.2.1-.5.2-.6.4-.1.2-.4.4-.6.6-.2.2-.5.3-.6.6-.1,0-.2,0-.3.2,0,.1-.2.3-.3.5l-.3.4c-.2.2-.4.3-.4.5s-.1.3-.3.2c0,.1,0,.1,0,.2-.3.3-.4.7-.7.9h0c-.1.4-.4.8-.7,1,0,0,.1.1,0,.2-.1.1-.1.3-.2.4-.1.2-.5.7-.7,1,0,0,0,0,0,0,0,.1-.2.4-.5.3-.1,0-.3,0-.3.2.3-.1.3.2.5.2-.1,0-.2.1,0,.3,0,0,0,0,0,0-.1,0,0,.2-.1.3-.1.1-.1.4-.5.5.2,0,.4.1.5,0,0,0,0,.1,0,.2s-.1,0,0,.1c0,0,.1,0,.1,0s0-.1.1-.1c.2,0,.2-.1.4-.1.4-.2.5-.7.9-.8s.8-.6.9-.9h0c.2,0,.4-.2.7-.5.2-.1.4-.4.6-.5.4-.2.7-.6,1.1-1,.3-.2.6-.5.9-.8.5-.4.9-.7,1.3-1.1.4-.2.6-.5.9-.9,0,0,.2,0,.3,0,0,0,0,0,0,0,0,0,0,0-.1,0-.1,0-.1,0,0,0,0,.1.1.1.2.1s.1,0,.1-.1c0,0,.1-.2-.1-.3h0c0-.1.1-.1.2-.1.1,0,0,0,0,0,0,.1.1.1.2.1s0,0,0,0c0,0,0,0,0-.1h.2c0,0,.1,0,.1,0,0-.1,0,0,0,0,0,0-.2,0-.2-.1.2,0,.3-.2.4-.3,0,0,.1,0,.2,0,.4,0,.3-.4.5-.5-.1,0-.2.1-.4.3,0,0,0,0-.1,0,0,0,0,0,0-.1,0-.2.2-.1.3-.2.1-.2.4-.3.5-.5,0,0,0,0,.1,0,.1,0,.2,0,.2-.2.4-.4.6-.9.9-1.3.2-.2,0-.3-.2-.4ZM155.7,29.4c.1,0,.2-.1.1-.3-.1.1-.1.2-.1.3ZM156,29.2c.1,0,0,.2.1.2,0,0,.1,0,.1,0,0,0,0-.1-.2-.2ZM156.3,29.1l.3-.3h0c0,0,0,0,0,0,0,0-.2.3-.2.3ZM156.8,27.9s0,0,.1,0c0,0,0-.1,0-.3,0,.1-.2.1-.2.3ZM156.9,28.1s-.1,0,0,0,.1,0,.1,0h0ZM157.1,27.6c0,0,.1,0,.2,0,0,0,.2-.3,0-.3s-.2.3-.2.3ZM157.5,27.2c.1,0,.1,0,.1,0,0,0-.1,0-.1,0ZM157.8,27.3v.3c-.1,0,.1-.3.1-.3h-.1ZM157.7,25.9c.1,0,.3,0,.3,0h0c0,0-.2,0-.4,0ZM157.9,26.6c0,0,.1,0,.1-.2,0,0-.1.1-.1.2ZM158.4,26c-.1,0-.1,0-.2,0,.1,0,.1,0,.2,0,.4,0,0-.2,0-.2.1,0,.1,0,.2,0,0,0-.1-.1-.2-.1,0,0,0,0,0,.1,0,0-.1,0-.2,0,0,0,.1-.2,0-.2-.1,0-.1.1-.1.2h.1c-.1.1,0,.2.1.3ZM158.7,25.4c0-.1.2-.2.2-.3,0,0,.1,0,0-.2,0,0-.1,0-.1,0-.1,0-.2.2-.2.4ZM159.4,24.5c.1,0,.1,0,0,0,.2,0,.3-.2.3-.4-.2.1-.3.2-.3.4,0,0,0,0,0,0ZM159.7,23c.1,0,.1-.1.1-.2,0,0-.1,0-.1.2ZM159.9,23.3h-.1,0c0,0,.1,0,0,0ZM159.9,23.8s-.1,0-.1.2c.1,0,.2,0,.2-.1,0,0-.1,0-.1,0ZM160.1,29.2v.2q.1,0,.1,0c0,0,0-.1-.1-.1ZM160.7,28.9h0q0,0,0,.1h0s0,0,0,0h0c0-.1,0-.1,0-.2,0,0,0,0,0,.2ZM160.9,21.9q0,0,.1-.1c-.1,0-.2,0-.1.1ZM161,22.3c0,0,0,0-.1.1,0,0,0,0,0,0,0,0,.1,0,.1-.1s0,0,0,0ZM161.5,28.1c0,0,.1,0,.1,0,0,0,0,0,0,.2,0,0-.1,0-.2,0,0,0,.1,0,.1,0ZM161.8,32.2c-.2,0-.2.1-.2.2l.2-.2ZM162,32.5s0,0,0,0c0,0-.1,0,0,0h0s0,0,0,0ZM162.2,31.3c-.1,0-.1.1-.2.2,0,0,0,.1,0,.1.1,0,.1,0,.1,0,0-.1,0-.1,0-.3ZM162.3,26.9c-.1,0-.2,0-.2.2.1-.1.1-.2.2-.2ZM162.8,27.5c-.2,0-.2,0-.2.2,0,0,0,0,0,.1,0,0-.1.1-.2.1h-.1c0-.1.1-.1.1-.1,0-.1.2-.2.2-.3,0-.2.1-.1.2,0ZM167.2,23.1c0,0,0,0,0,0-.1,0-.2.2-.2.2-.2.5-.5.9-.8,1.3,0,0-.1,0-.1.1-.1.2-.2.4-.4.6-.2.4-.5.7-.7,1-.2.3-.3.6-.5.9-.1,0-.2.1-.2.3,0,.2-.2.4-.5.6s-.1.3,0,.4c-.2,0-.4.1-.4.3,0,0,0,0-.1.1-.2.2-.2.5-.4.7-.1.3-.5.5-.4.8-.2,0-.1.3-.2.4.2-.2.4-.5.5-.8.2-.3.4-.5.4-.8,0,0,.1,0,.1-.2s.1-.2.2-.3c0,0,.1-.2.1-.3.1-.1.2-.3.4-.5.2-.3.4-.7.6-1,.3-.4.6-.9.8-1.3.2-.3.4-.6.7-.9.1-.3.4-.5.5-.8l.5-.8s.1,0,0-.1ZM162.8,27.4c0-.1,0-.1.1-.1,0,0,.1,0,.1,0s-.1.1-.1.1c0,0-.1,0-.1,0ZM163.2,30.9s0,0,0,0c-.2,0-.1.1-.2.2q0,0,0,0t0,0c0,0,.1-.1.1-.2ZM163.1,30.4c0-.2.2-.2.2-.3-.2,0-.3.1-.3.3h0ZM163.8,30.8q0,0,0-.1c0,0-.1,0-.1,0,0,.1-.2.2-.3.3,0,.1-.1.4,0,.4,0,0,.2-.1.2-.2.2-.1.2-.2.3-.4ZM163.8,26.6c-.1,0-.2.2-.3.2.1,0,0-.3.3-.2ZM163.9,29.2s0-.1-.1-.1-.1,0-.1.1c0,0,0,.1,0,.2.2.1.3,0,.3-.1ZM163.9,30.5c0,0-.1,0-.1,0,0,0-.1,0-.1.1,0,0,0,0,.1,0s.1,0,.1,0ZM164.1,30.2q0,0-.1,0s-.1,0,0,0c-.1,0,0,.1,0,.1,0,0,.2,0,.2-.1ZM164.2,25.3c-.1-.1-.1,0-.3,0h.3ZM164.1,28.6c0,0,0,.2,0,.3,0-.1.2-.2,0-.3ZM164.3,28.4c.1-.1,0-.1,0-.3-.1,0-.1.1,0,.2,0,0,0,.1,0,0ZM164.6,28.1c0-.1,0-.2-.2-.1,0,0-.1,0-.1,0,.1,0,.2,0,.3,0ZM164.9,28.1c-.1,0-.2,0-.2.1,0,.1,0,.3-.4.3,0,0,0,.1.2.1s.1,0,.1,0c0-.2.1-.3.2-.5ZM164.7,24.8c-.1,0-.2,0-.2.1.1,0,.1,0,.2,0h0ZM165.4,27.8s0,0,0,0c0,0-.3.1-.3.3q0,0,0,0c.1,0,.4,0,.4-.3,0,0,0,0,0,0ZM165.4,26.8s0,0,0-.1c0,0,0,0-.1.1,0,0,0,0,0,.2.1,0,.2,0,.2-.1ZM165.9,26c0,0-.2,0-.2,0s0,.1,0,.1c.1,0,.1,0,.2-.1ZM165.9,27.3c0,0,0,0,0,0-.1,0-.1,0-.1,0q0,0,.1,0s0,0,0,0ZM165.9,25.9h0s0,0,0-.1c0,0,0,0,0,.1ZM167.1,24.1h0s0,0,0,0h0c0,0,0,0,0,0ZM168.3,28.5c.1,0,.2,0,.2-.1-.1,0-.1,0-.2.1ZM168.9,27.8c.1,0,.1,0,.2,0-.1,0-.2,0-.2,0Z"/>
</svg>